/* XPM */
static char *_a4ab5dbd9864d62ebe830f70e039290Eelh3YomRrBzF22X[] = {
/* columns rows colors chars-per-pixel */
"64 64 131 2 ",
"   c None",
".  c #012751",
"X  c #022C5B",
"o  c #08315E",
"O  c #033164",
"+  c #0A3464",
"@  c #04366E",
"#  c #0C3A6F",
"$  c #033771",
"%  c #043872",
"&  c #0E3C72",
"*  c #093F7B",
"=  c #143E73",
"-  c #0B427E",
";  c #164076",
":  c #194173",
">  c #17437B",
",  c #1B467D",
"<  c #224476",
"1  c #274B7D",
"2  c #2A4D7F",
"3  c #0C4787",
"4  c #104380",
"5  c #1A4984",
"6  c #2C4E81",
"7  c #254E88",
"8  c #2D5184",
"9  c #21518F",
"0  c #2D5289",
"q  c #335384",
"w  c #345589",
"e  c #385789",
"r  c #3A5A8E",
"t  c #275390",
"y  c #2E5692",
"u  c #2F5894",
"i  c #2D5B9D",
"p  c #335A94",
"a  c #3B5C91",
"s  c #345D9B",
"d  c #1457A3",
"f  c #285CA2",
"g  c #3B64A5",
"h  c #3C69AD",
"j  c #3568B3",
"k  c #376DBB",
"l  c #3F6FB9",
"z  c #455F8F",
"x  c #435F91",
"c  c #436296",
"v  c #4A6395",
"b  c #44649D",
"n  c #486699",
"m  c #4C689B",
"M  c #506A9E",
"N  c #4667A2",
"B  c #4C6EA5",
"V  c #426AAB",
"C  c #516DA3",
"Z  c #5671A6",
"A  c #5773AA",
"S  c #5976AD",
"D  c #5B78AF",
"F  c #446EB4",
"G  c #4771B7",
"H  c #4F72B1",
"J  c #4471B9",
"K  c #4B74BB",
"L  c #5476B4",
"P  c #5C7AB2",
"I  c #5076BA",
"U  c #567BBC",
"Y  c #5A7BBA",
"T  c #607DB5",
"R  c #4677C6",
"E  c #4678C7",
"W  c #4F7AC4",
"Q  c #557DC4",
"!  c #5B7EC0",
"~  c #6382BC",
"^  c #5681CD",
"/  c #5881CB",
"(  c #5D86D1",
")  c #6484C4",
"_  c #6887C6",
"`  c #6F8CC4",
"'  c #6486CB",
"]  c #6788CC",
"[  c #698ACC",
"{  c #718EC6",
"}  c #738FC8",
"|  c #7390C7",
" . c #7492CB",
".. c #7896CF",
"X. c #6C8ED2",
"o. c #7393D2",
"O. c #7C97D3",
"+. c #7D99D3",
"@. c #839CD5",
"#. c #88A6DD",
"$. c #8DAADD",
"%. c #96AADB",
"&. c #96B2DF",
"*. c #A8B7DF",
"=. c #A9B8DF",
"-. c #97B3E0",
";. c #A4B5E1",
":. c #ACBBE0",
">. c #B1BEE2",
",. c #B6C1E1",
"<. c #BAC4E2",
"1. c #BFC8E3",
"2. c #BCCEEB",
"3. c #BFD1EC",
"4. c #C4CCE6",
"5. c #C3D4ED",
"6. c #C8D7ED",
"7. c #CAD9EE",
"8. c #D0D7E9",
"9. c #D4DBEC",
"0. c #D8DDEC",
"q. c #D3DEF0",
"w. c #DEE5F1",
"e. c #E1E4EE",
"r. c #E5E9F2",
"t. c #ECEEF5",
"y. c #EFF1F6",
"u. c #ECF1F8",
"i. c #F0F2F7",
"p. c #F2F4F9",
"a. c #FDFDFE",
/* pixels */
"                                                                                                                                ",
"                                                                                                                                ",
"                                                                                                                                ",
"                                                                                                                                ",
"                                                                                                                                ",
"                                                                                                                                ",
"                        R ( ^                                                                       ^ ( E                       ",
"                      Y %.9.=.' l                                                               J o.,.7.@.U                     ",
"                    Y &.p.a.a.,.' F                                                           J  .5.a.a.t.@.L                   ",
"                  Y -.p.a.9.p.a.,.) F                                                       J  .5.a.p.0.a.t.@.L                 ",
"                Y &.p.a.<.[ #.i.a.,.) G                                                   J  .5.a.p.@.[ ,.a.y.+.L               ",
"              k $.p.a.<._ Z T @.i.a.,.) F                                               J  .5.a.y.#.T A _ ,.a.t.+.j             ",
"              / 4.a.r.X.S v z S @.p.a.,.) F                                           J  .5.a.i.@.D z v S o.r.a.4.Q             ",
"              G %.a.a.=.) v w z P @.i.a.,.) F                                       J  .5.a.i.@.S e e v { 3.a.a.%.V             ",
"              f T %.p.a.:.! x y a D @.t.a.,.' F                                   J  .5.a.i.@.S w 0 x { 2.a.a.%.P t             ",
"                p T %.a.a.:.! N y a D #.y.a.,.) F                               J  .5.a.i.#.S e 0 b ` 2.a.p.$.S 0               ",
"                * 0 P %.p.a.*.) b y a D @.i.a.,.) G                           J  .5.a.t.@.S w 0 x } 2.a.p.%.D 6 O               ",
"                  % w P %.a.a.*.) b y a D @.i.a.,.) F                       J  .5.a.i.@.S w 0 b ` 2.a.a.%.D 6 +                 ",
"                    $ w P %.p.a.=.) b y a D @.i.a.,.) F                   J  .5.a.i.@.D e 0 b { 2.a.p.%.P 6 +                   ",
"                      % w P %.a.a.=.) b p a D @.i.a.,.) F               J  .5.a.i.@.D e 0 c ` 2.a.a.%.P 6 O                     ",
"                        $ w P %.a.a.=.) b y a D @.y.a.,.) F           J  .5.a.i.@.S e 0 b ` 2.a.p.%.L 6 +                       ",
"                          $ w P %.a.a.=.) b y r D @.y.a.,.) F       G  .5.a.i.@.S e 0 c } 2.a.a.%.S 6 +                         ",
"                            % w D %.p.a.=.) b y a D @.y.a.,.) L G L  .5.a.i.@.S w 0 c } 4.a.a.%.D 6 +                           ",
"                              % 0 P %.a.a.:.) N y a D @.i.a.,.) D  .5.a.t.@.A e 0 b } 2.a.p.%.D 6 +                             ",
"                                @ w P %.a.a.*.) b u a S +.t.a.,.X.5.a.y.@.S e 0 b } 2.a.a.$.D 6 +                               ",
"                                  % 0 P %.p.a.:.) b y a D @.i.a.t.a.y.@.A e 0 b ` 4.a.a.%.S 6 +                                 ",
"                                    $ w P %.a.a.:.) N y a D @.t.a.t.@.A w 8 b { 2.a.p.%.S 6 O                                   ",
"                                      $ w D $.a.a.:.) b y r A +.0.@.C e 0 b { 2.a.a.%.P 6 O                                     ",
"                                        % w P %.a.a.:.) N 9 0 b L a 6 7 b { 3.a.a.%.P 6 +                                       ",
"                                          $ w P %.p.a.:._ s 3 = : # - s { 2.a.a.%.P 6 O                                         ",
"                                            * x ) %.a.a.>.U           ! 2.a.p.%.T a %                                           ",
"                                              p A  .w.a.e.'           ' e.a.0.[ Z w                                             ",
"                                              N | 7.a.t.+.L           U @.y.a.<.~ b                                             ",
"                                            F  .5.a.y.+.S p d         g P @.y.a.,._ V                                           ",
"                                          G  .5.a.y.@.Z e t g ] X.' h i a D +.y.a.,.) F                                         ",
"                                        J  .6.a.t.@.S w 0 b } 2.a.>.' N u r D +.t.a.1.' G                                       ",
"                                      G  .6.a.t.@.A e 0 b } 3.a.a.a.>.) N y r D +.t.a.1._ F                                     ",
"                                    J ..6.a.t.@.Z w 0 b } 5.a.a.4.a.a.>.) N y r S @.t.a.1.[ F                                   ",
"                                  G  .6.a.t.+.Z w 0 b { 5.a.a.%.[ %.p.a.>.) b u a S +.t.a.4.' G                                 ",
"                                J +.7.a.t.@.A e 0 b { 3.a.p.%.P M P %.a.a.:.) N y r S +.t.a.1.' F                               ",
"                              G ..7.a.t.+.Z e 0 b { 3.a.p.%.P q < e D %.p.a.>.) b p r A +.u.a.4._ F                             ",
"                            J +.9.a.t.+.Z e 0 c } 5.a.a.%.P 6 + X @ 0 P %.a.a.>.) N y a A +.y.a.4.[ F                           ",
"                          G +.9.a.t.+.S w 0 b } 5.a.a.%.D 2 O       @ 8 P %.p.a.:.) N y r A +.u.a.4.X.F                         ",
"                        G +.q.a.y.+.Z w 0 b } 5.a.p.%.D 6 O           % 0 P %.a.a.>.) b y r A +.t.a.4.` F                       ",
"                      G +.9.a.t.+.C e 0 b } 5.a.p.%.P 2 O               % w P %.a.a.>.) N y r A +.t.a.4.[ G                     ",
"                    G +.q.a.t.+.Z q 0 b { 2.a.a.%.D 6 O                   $ q P %.p.a.,.) b y r S +.t.a.4.[ F                   ",
"                  G +.q.a.y.+.Z w 0 b { 5.a.p.%.D 6 O                       $ 0 P %.p.a.,.) N y r A +.t.a.4.[ F                 ",
"                J +.q.a.t.+.Z w 0 b { 3.a.a.%.P 2 O                           $ w P %.a.a.:.) N y r A +.t.a.4.[ F               ",
"                +.w.a.y.+.D e 0 b { 5.a.a.%.D 2 O                               $ q P %.p.a.>.) N y a D +.t.a.4.[               ",
"              W ,.a.u.+.T v r b } 5.a.p.%.D 6 O                                   $ 0 P %.a.a.,.) b a m ~ +.p.a.,.I             ",
"              Q <.a.y.O.D M B { 5.a.p.%.D 6 O                                       $ 0 P %.a.a.>._ C C P $.p.a.2.K             ",
"              h X.9.a.r.O.L } 4.a.a.%.D 6 O                                           $ w P %.p.a.>._ D $.y.a.9.[ s             ",
"                B [ 0.a.e.O.3.a.p.%.P 6 O                                               % 0 D %.a.a.>.#.u.a.9.[ c 4             ",
"                5 n [ 0.a.a.a.a.%.D 6 O                                                   % w P %.a.a.a.a.9.` z :               ",
"                  , n [ 9.a.a.%.S 2 O                                                       @ 0 S %.a.a.0.[ x =                 ",
"                    > c ) ;.@.C 1 O                                                           $ 7 Z @.;.) e =                   ",
"                      & 8 w 2 : X                                                                 , q q 1 #                     ",
"                        X o X                                                                       X o .                       ",
"                                                                                                                                ",
"                                                                                                                                ",
"                                                                                                                                ",
"                                                                                                                                ",
"                                                                                                                                ",
"                                                                                                                                "
};
