/* XPM */
static char *result[] = {
/* columns rows colors chars-per-pixel */
"64 64 201 2 ",
"   c #216400",
".  c #2E7C00",
"X  c #2F7500",
"o  c #347D00",
"O  c #158300",
"+  c #168D00",
"@  c #1A8D00",
"#  c #169400",
"$  c #199B00",
"%  c #1B9000",
"&  c #2E8100",
"*  c #308300",
"=  c #229B00",
"-  c #209600",
";  c #16A300",
":  c #1DA100",
">  c #16AB00",
",  c #16BC00",
"<  c #1BBB00",
"1  c #18B200",
"2  c #28A400",
"3  c #25AA00",
"4  c #2CAB00",
"5  c #21A100",
"6  c #31AC00",
"7  c #3BAC00",
"8  c #23BB00",
"9  c #2DBC00",
"0  c #23B700",
"q  c #35B500",
"w  c #3DB400",
"e  c #35BB00",
"r  c #46AA00",
"t  c #56A700",
"y  c #43BD00",
"u  c #4EB300",
"i  c #5DBD00",
"p  c #69B700",
"a  c #16C400",
"s  c #1CC500",
"d  c #15CC00",
"f  c #1BCA00",
"g  c #15D400",
"h  c #14DB00",
"j  c #24C500",
"k  c #2BC600",
"l  c #35C100",
"z  c #3BC400",
"x  c #36C800",
"c  c #3DCB00",
"v  c #39D102",
"b  c #14E400",
"n  c #13EB00",
"m  c #1BEC00",
"M  c #12F500",
"N  c #1BF700",
"B  c #26EC0C",
"V  c #29E900",
"C  c #34EB00",
"Z  c #39E203",
"A  c #24F70C",
"S  c #28EA10",
"D  c #3AED1B",
"F  c #34EF17",
"G  c #38F81B",
"H  c #44C400",
"J  c #4DC700",
"K  c #45CC00",
"L  c #4CCC01",
"P  c #4CD100",
"I  c #49D901",
"U  c #53D301",
"Y  c #58DE03",
"T  c #57CB14",
"R  c #5AD518",
"E  c #61D51D",
"W  c #5ECD27",
"Q  c #5AD625",
"!  c #5EDE3D",
"~  c #65D22A",
"^  c #69D929",
"/  c #6CDB32",
"(  c #74DC39",
")  c #79DE3C",
"_  c #71DF31",
"`  c #43EE2B",
"'  c #46EE2A",
"]  c #45F02B",
"[  c #48F02C",
"{  c #46F82E",
"}  c #50F22E",
"|  c #4BEF31",
" . c #5FE13E",
".. c #4AF831",
"X. c #54F135",
"o. c #5DF33B",
"O. c #57F838",
"+. c #69F42A",
"@. c #67E432",
"#. c #78E238",
"$. c #67F33F",
"%. c #7AC948",
"&. c #7BD54A",
"*. c #7EDC4B",
"=. c #7CDC44",
"-. c #5FF840",
";. c #7DE344",
":. c #6CF444",
">. c #63F941",
",. c #6DF449",
"<. c #69F744",
"1. c #72F447",
"2. c #7CF643",
"3. c #77F843",
"4. c #78FB44",
"5. c #71F54A",
"6. c #79F64D",
"7. c #74F84B",
"8. c #75EC56",
"9. c #75F652",
"0. c #7DF751",
"q. c #75FA51",
"w. c #7DFB57",
"e. c #80E23F",
"r. c #80C946",
"t. c #82D94A",
"y. c #89D149",
"u. c #93D94A",
"i. c #82E444",
"p. c #85E54A",
"a. c #89E74B",
"s. c #8AEA4D",
"d. c #84E844",
"f. c #83F949",
"g. c #8DED52",
"h. c #91EE54",
"j. c #93E45D",
"k. c #96EB5D",
"l. c #84F652",
"z. c #8EF353",
"x. c #83F853",
"c. c #8AF956",
"v. c #84F95B",
"b. c #8EFD5D",
"n. c #80F758",
"m. c #90F354",
"M. c #93F35B",
"N. c #91FB5F",
"B. c #93F855",
"V. c #8FFA61",
"C. c #93FB64",
"Z. c #9BF66D",
"A. c #96F96C",
"S. c #99F766",
"D. c #9EF571",
"F. c #9AF972",
"G. c #9FFA7A",
"H. c #A3F474",
"J. c #A1FB73",
"K. c #A3F779",
"L. c #A5FA7D",
"P. c #A9FB7D",
"I. c #A5F982",
"U. c #ABF985",
"Y. c #ABF98B",
"T. c #B1FC86",
"R. c #B6FC8D",
"E. c #B2FA95",
"W. c #B4FA9B",
"Q. c #BBFC96",
"!. c #BAFAA4",
"~. c #BFFBAB",
"^. c #B6FBA0",
"/. c #C1FC9F",
"(. c #D6FC9E",
"). c #C3FCA3",
"_. c #C2FBAD",
"`. c #C9FCAE",
"'. c #D4FDA7",
"]. c #C5FBB2",
"[. c #CBFBBC",
"{. c #CFFCB5",
"}. c #D3FDBC",
"|. c #CBFBC1",
" X c #D8FDC5",
".X c #D4FCCC",
"XX c #DBFDCB",
"oX c #D6FDC1",
"OX c #DBFCD3",
"+X c #DFFCDA",
"@X c #E3FDDB",
"#X c #E3FDD6",
"$X c #E3FDE1",
"%X c #EAFDE3",
"&X c #EDFEEB",
"*X c #F1FEEE",
"=X c #FCFFEC",
"-X c #F4FEF3",
";X c #F9FEF7",
":X c #FEFFFE",
">X c None",
/* pixels */
">X>X>X>X>X>X>X>X>X>X>X>X>X>X>X>X>X>X>X>X>X>X>X>X>X>X>X>X>X>X>X>X>X>X>X>X>X>X>X>X>X>X>X>X>X>X>X>X>X>X>X>X>X>X>X>X>X>X>X>X>X>X>X>X",
">X>X>X>X>X>X>X>X>X>X>X>X>X>X>X>X>X>X>X>X>X>X>X>X>X>X>X>X>X>X>X>X>X>X>X>X>X>X>X>X>X>X>X>X>X>X>X>X>X>X>X>X>X>X>X>X>X>X>X>X>X>X>X>X",
">X>X>X>X>X>X>X>X>X>X>X>X>X>X>X>X>X>X>X>X>X>X>X>X>X>X>X>X>X>X>X>X>X>X>X>X>X>X>X>X>X>X>X>X>X>X>X>X>X>X>X>X>X>X>X>X>X>X>X>X>X>X>X>X",
">X>X>X>X>X>X>X>X>X>X>X>X>X>X>X>X>X>X>X>X>X>X>X>X>X>X>X>X>X>X>X>X>X>X>X>X>X>X>X>X>X>X>X>X>X>X>X>X>X>X>X>X>X>X>X>X>X>X>X>X>X>X>X>X",
">X>X>X>X>X>X>X>X>X>X>X>X>X>X>X>X>X>X>X>X>X>X>X>X>X>X>X>X>X>X>X>X>X>X>X>X>X>X>X>X>X>X>X>X>X>X>X>X>X>X>X>X>X>X>X>X>X>X>X>X>X>X>X>X",
">X>X>X>X>X>X>X>X>X>X>X>X>X>X>X>X>X>X>X>X>X>X>X>X>X>X>X>X>X>X>X>X>X>X>X>X>X>X>X>X>X>X>X>X>X>X>X>X>X>X>X>X>X>X>X>X>X>X>X>X>X>X>X>X",
">X>X>X>X>X>X>X>X>X>X>X>X>X>X>X>X>X>X>X>X>X>X>X>X>X>X>X>X>X>X>X>X>X>X>X>X>X>X>X>X>X>X>X>X>X>X>X>X>X>X>X>X>X>X>X>X>X>X>X>X>X>X>X>X",
">X>X>X>X>X>X>X>X>X>X>X>X>X>X>X>X>X>X>X>X>X>X>X>X>X>X>X>X>X>X>X>X>X>X>X>X>X>X>X>X>X>X>X>X>X>X>X>X>X>X>X>X>X>X>X>X>X>X>X>X>X>X>X>X",
">X>X>X>X>X>X>X>X>X>X>X>X>X>X>X>X>X>X>X>X>X>X>X>X>X>X>X>X>X>X>X>X>X>X>X>X>X>X>X>X>X>X>X>X>X>X>X>X>X>X>X>X>X>X>X>X>X>X>X>X>X>X>X>X",
">X>X>X>X>X>X>X>X>X>X>X>X>X>X>X>X>X>X>X>X>X>X>X>X>X>X>X>X>X>X>X>X>X>X>X>X>X>X>X>X>X>X>X>X>X>X>X>X>X>X>X>X>X>X>X>X>X>X>X>X>X>X>X>X",
">X>X>X>X>X>X>X>X>X>X>X>X>X>X>X>X>X>X>X>X>X>X>X>X>X>X>X>X>X>X>X>X>X>X>X>X>X>X>X>X>X>X>X>X>X>X>X>X>X>X>X>X>X>X>X>X>X>X>X>X>X>X>X>X",
">X>X>X>X>X>X>X>X>Xo . & & * * * * * * & * * * * * * * * * * * . * * * * * * * * * * * * * * * * * * * * & & X X   >X>X>X>X>X>X>X",
">X>X>X>X>X>X>X>Xp r.&.&.*.t.t.t.t.t.t.t.t.t.t.t.t.t.t.t.t.t.t.t.t.t.t.t.t.t.t.t.t.t.t.t.t.t.t.t.t.t.t.t.&.&.&.%.t >X>X>X>X>X>X>X",
">X>X>X>X>X>X>XL H.|.|.|.|.|.|.|.|.|.|.|.|.|.|.|.|.|.|.|.|.|.|.|.|.|.|.|.|.|.|.|.|.|.|.|.|.|.|.|.|.|.|.|.|.|.|.|.H.w >X>X>X>X>X>X",
">X>X>X>X>X>X>XZ }.:X:X:X:X:X:X:X:X:X:X:X:X:X:X:X:X:X:X:X:X:X:X:X:X:X:X:X:X:X:X:X:X:X:X:X:X:X:X:X:X:X:X:X:X:X:X:X[.c >X>X>X>X>X>X",
">X>X>X>X>X>X>Xn L.;X;Xz.3.3.3.3.4.3.3.3.3.3.3.3.3.3.3.3.3.3.3.3.3.3.3.3.3.3.3.3.3.3.3.3.3.3.3.3.3.4.4.3.c.(.:X;XF.b >X>X>X>X>X>X",
">X>X>X>X>X>X>X>Xq.oX:XW.+.m b n M b h d d d d d d d d d d d d d d d d d d d d d d d d d a d g h M M n m +.W.:X|.1.>X>X>X>X>X>X>X",
">X>X>X>X>X>X>X>XM F.-X*Xc.c > >X>X>Xu r w q 7 w w w w y w w y w w y w w w w y w y w q q 7 7 r 5 >X>Xa I B.&X-Xb.n >X>X>X>X>X>X>X",
">X>X>X>X>X>X>X>X>XO.`.:X[.) = >X>Xi u.j.j.j.k.k.k.k.k.k.k.k.k.k.k.k.k.k.k.k.k.k.k.k.j.j.j.j.y.r >X>X3 #.[.:X^.} >X>X>X>X>X>X>X>X",
">X>X>X>X>X>X>X>X>XM C.%X;XD.y + >X;.|.$X$X$X$X$X$X$X$X$X$X$X$X$X$X$X$X$X$X$X$X$X$X$X$X$X$X$X[.&.>X; J D.;X$Xc.n >X>X>X>X>X>X>X>X",
">X>X>X>X>X>X>X>X>X>XG Q.:X.Xp.4 >  .`.:X:X&X$X$X$X$X$X@X$X$X$X$X$X$X$X$X$X$X$X$X$X$X%X=X:X:X].! , e a..X:XY.F >X>X>X>X>X>X>X>X>X",
">X>X>X>X>X>X>X>X>X>X>Xw.OX:XY.R 1 g b.&X:XF.c.c.c.b.N.N.b.N.b.b.b.N.b.b.b.N.b.b.c.c.F.'.:X%Xl.h , Q Y.:X.X6.>X>X>X>X>X>X>X>X>X>X",
">X>X>X>X>X>X>X>X>X>X>XM P.;X$Xg.l a ' ).:X|.2.V h b >X>X>X>X>X>X>X>X>X>X>X>X>X>Xb V f.|.:XE.` g c m.$X;XA.n >X>X>X>X>X>X>X>X>X>X",
">X>X>X>X>X>X>X>X>X>X>X>X<.}.:X!./ < g v.@X:XI.I > >X>X>X>X>X>X>X>X>X>X>X>X>X>X>X, Y P.:XOX0.h s _ !.:X[.$.>X>X>X>X>X>X>X>X>X>X>X",
">X>X>X>X>X>X>X>X>X>X>X>XM C.*X-XS.z a n T.:X+Xg.2 >X>X>X>X>X>X>X>X>X>X>X>X>X>X>Xq h.@X;XG.n d K S.-X&Xl.n >X>X>X>X>X>X>X>X>X>X>X",
">X>X>X>X>X>X>X>X>X>X>X>X>X..).:X[.=.8 d 9. X:XW.W @ >X>X>X>X>X>X>X>X>X>X>X>X>X: ~ W.:X|.5.g k i.[.:XW.' >X>X>X>X>X>X>X>X>X>X>X>X",
">X>X>X>X>X>X>X>X>X>X>X>X>X>XC.@X;XK.K , b J.-X&Xz.7 >X>X>X>X>X>X>X>X>X>X>X>X>Xy h.&X-XV.b d U L.;X+Xc.n >X>X>X>X>X>X>X>X>X>X>X>X",
">X>X>X>X>X>X>X>X>X>X>X>X>X>XN R.:XOXs.9 d X.`.:X].( - >X>X>X>X>X>X>X>X>X>X>X3 ) ].:X^.X.g x s.OX:XL.m >X>X>X>X>X>X>X>X>X>X>X>X>X",
">X>X>X>X>X>X>X>X>X>X>X>X>X>X>Xq.XX:XE.Q < h C.%X;XD.y . >X>X>X>X>X>X>X>X>X>XJ Z.;X$Xc.b a ^ W.:X|.,.>X>X>X>X>X>X>X>X>X>X>X>X>X>X",
">X>X>X>X>X>X>X>X>X>X>X>X>X>X>XM L.;X%Xg.l a D Q.:X.Xp.= >X>X>X>X>X>X>X>X>X6 a..X:XY.D d K z.%X-XA.n >X>X>X>X>X>X>X>X>X>X>X>X>X>X",
">X>X>X>X>X>X>X>X>X>X>X>X>X>X>X>Xo.{.:X]._ < g n.OX:XU.T O >X>X>X>X>X>X>X$ T U.:X.X9.h j #.~.:X_.o.>X>X>X>X>X>X>X>X>X>X>X>X>X>X>X",
">X>X>X>X>X>X>X>X>X>X>X>X>X>X>X>XM C.&X-XZ.H a b P.;X$Xg.6 >X>X>X>X>X>X>Xw h.$X-XA.n d L Z.-X%X0.n >X>X>X>X>X>X>X>X>X>X>X>X>X>X>X",
">X>X>X>X>X>X>X>X>X>X>X>X>X>X>X>X>X{ /.:X|.i.8 g ,.oX:X!.~ @ >X>X>X>X>X5 ^ !.:X[.:.g k d.|.:XE.] >X>X>X>X>X>X>X>X>X>X>X>X>X>X>X>X",
">X>X>X>X>X>X>X>X>X>X>X>X>X>X>X>X>X>Xv.#X:XI.P , b S.*X-XM.q >X>X>X>X>Xy M.*X*Xc.b d U P.:XOXw.>X>X>X>X>X>X>X>X>X>X>X>X>X>X>X>X>X",
">X>X>X>X>X>X>X>X>X>X>X>X>X>X>X>X>X>XM U.:X@Xg.9 d | ).:X|.t.= >X>X>X3 i.|.:XW.[ g c g.@X;XD.n >X>X>X>X>X>X>X>X>X>X>X>X>X>X>X>X>X",
">X>X>X>X>X>X>X>X>X>X>X>X>X>X>X>X>X>X>X9. X:XE.~ < h C.@X;XZ.y O >X# J J.;X@Xx.h s ^ W.:X|.1.>X>X>X>X>X>X>X>X>X>X>X>X>X>X>X>X>X>X",
">X>X>X>X>X>X>X>X>X>X>X>X>X>X>X>X>X>X>XM J.-X*Xz.l a S R.:XOXp.3 + 4 a.OX:XI.S d K z.&X-XC.n >X>X>X>X>X>X>X>X>X>X>X>X>X>X>X>X>X>X",
">X>X>X>X>X>X>X>X>X>X>X>X>X>X>X>X>X>X>X>XO.`.:X[.) 8 g 9.XX:XE.Q , Q E.:X|.7.h j #.[.:X!.X.>X>X>X>X>X>X>X>X>X>X>X>X>X>X>X>X>X>X>X",
">X>X>X>X>X>X>X>X>X>X>X>X>X>X>X>X>X>X>X>XM C.%X;XA.K , b K.;X$Xl.C l.$X;XZ.n f P Z.;X$Xx.n >X>X>X>X>X>X>X>X>X>X>X>X>X>X>X>X>X>X>X",
">X>X>X>X>X>X>X>X>X>X>X>X>X>X>X>X>X>X>X>X>XG Q.:X.Xp.9 d $.}.:X~.1.~.:X].o.g k a..X:XY.D >X>X>X>X>X>X>X>X>X>X>X>X>X>X>X>X>X>X>X>X",
">X>X>X>X>X>X>X>X>X>X>X>X>X>X>X>X>X>X>X>X>X>Xv.OX:XU.T , h b.&X-XW.-X%Xl.b a E U.:X.X6.>X>X>X>X>X>X>X>X>X>X>X>X>X>X>X>X>X>X>X>X>X",
">X>X>X>X>X>X>X>X>X>X>X>X>X>X>X>X>X>X>X>X>X>XM P.:X$Xz.l a ` ).:X:X:XE.` g c m.@X;XF.n >X>X>X>X>X>X>X>X>X>X>X>X>X>X>X>X>X>X>X>X>X",
">X>X>X>X>X>X>X>X>X>X>X>X>X>X>X>X>X>X>X>X>X>X>X<.}.:X!./ < h V.@X:XOXx.h s _ !.:X[.<.>X>X>X>X>X>X>X>X>X>X>X>X>X>X>X>X>X>X>X>X>X>X",
">X>X>X>X>X>X>X>X>X>X>X>X>X>X>X>X>X>X>X>X>X>X>XM Z.*X*XM.z , b R.-XL.n d K M.-X*Xc.n >X>X>X>X>X>X>X>X>X>X>X>X>X>X>X>X>X>X>X>X>X>X",
">X>X>X>X>X>X>X>X>X>X>X>X>X>X>X>X>X>X>X>X>X>X>X>X.._.:X[.;.0 a 8.c.,.g j i.[.:XW.' >X>X>X>X>X>X>X>X>X>X>X>X>X>X>X>X>X>X>X>X>X>X>X",
">X>X>X>X>X>X>X>X>X>X>X>X>X>X>X>X>X>X>X>X>X>X>X>X>XV.@X:XD.K ; >X>X>X< P H.;X@Xx.n >X>X>X>X>X>X>X>X>X>X>X>X>X>X>X>X>X>X>X>X>X>X>X",
">X>X>X>X>X>X>X>X>X>X>X>X>X>X>X>X>X>X>X>X>X>X>X>X>XA R.:XOXa.4 >X>X>Xe s.OX:XI.B >X>X>X>X>X>X>X>X>X>X>X>X>X>X>X>X>X>X>X>X>X>X>X>X",
">X>X>X>X>X>X>X>X>X>X>X>X>X>X>X>X>X>X>X>X>X>X>X>X>X>Xq.XX:XE.W + >X$ ~ E.:X|.5.>X>X>X>X>X>X>X>X>X>X>X>X>X>X>X>X>X>X>X>X>X>X>X>X>X",
">X>X>X>X>X>X>X>X>X>X>X>X>X>X>X>X>X>X>X>X>X>X>X>X>X>XM P.;X%Xg.q $ e g.$X;XA.n >X>X>X>X>X>X>X>X>X>X>X>X>X>X>X>X>X>X>X>X>X>X>X>X>X",
">X>X>X>X>X>X>X>X>X>X>X>X>X>X>X>X>X>X>X>X>X>X>X>X>X>X>X>.{.:X~.@.s @._.:X].o.>X>X>X>X>X>X>X>X>X>X>X>X>X>X>X>X>X>X>X>X>X>X>X>X>X>X",
">X>X>X>X>X>X>X>X>X>X>X>X>X>X>X>X>X>X>X>X>X>X>X>X>X>X>XM C.&X-XZ.C Z.-X&Xx.n >X>X>X>X>X>X>X>X>X>X>X>X>X>X>X>X>X>X>X>X>X>X>X>X>X>X",
">X>X>X>X>X>X>X>X>X>X>X>X>X>X>X>X>X>X>X>X>X>X>X>X>X>X>X>X{ ).:X|.N.|.:XE.] >X>X>X>X>X>X>X>X>X>X>X>X>X>X>X>X>X>X>X>X>X>X>X>X>X>X>X",
">X>X>X>X>X>X>X>X>X>X>X>X>X>X>X>X>X>X>X>X>X>X>X>X>X>X>X>X>Xb.@X:X|.:XOXl.n >X>X>X>X>X>X>X>X>X>X>X>X>X>X>X>X>X>X>X>X>X>X>X>X>X>X>X",
">X>X>X>X>X>X>X>X>X>X>X>X>X>X>X>X>X>X>X>X>X>X>X>X>X>X>X>X>XM T.;X:X:XG.M >X>X>X>X>X>X>X>X>X>X>X>X>X>X>X>X>X>X>X>X>X>X>X>X>X>X>X>X",
">X>X>X>X>X>X>X>X>X>X>X>X>X>X>X>X>X>X>X>X>X>X>X>X>X>X>X>X>X>Xw. X:X|.5.>X>X>X>X>X>X>X>X>X>X>X>X>X>X>X>X>X>X>X>X>X>X>X>X>X>X>X>X>X",
">X>X>X>X>X>X>X>X>X>X>X>X>X>X>X>X>X>X>X>X>X>X>X>X>X>X>X>X>X>X>Xb.C.f.>X>X>X>X>X>X>X>X>X>X>X>X>X>X>X>X>X>X>X>X>X>X>X>X>X>X>X>X>X>X",
">X>X>X>X>X>X>X>X>X>X>X>X>X>X>X>X>X>X>X>X>X>X>X>X>X>X>X>X>X>X>X>X>X>X>X>X>X>X>X>X>X>X>X>X>X>X>X>X>X>X>X>X>X>X>X>X>X>X>X>X>X>X>X>X",
">X>X>X>X>X>X>X>X>X>X>X>X>X>X>X>X>X>X>X>X>X>X>X>X>X>X>X>X>X>X>X>X>X>X>X>X>X>X>X>X>X>X>X>X>X>X>X>X>X>X>X>X>X>X>X>X>X>X>X>X>X>X>X>X",
">X>X>X>X>X>X>X>X>X>X>X>X>X>X>X>X>X>X>X>X>X>X>X>X>X>X>X>X>X>X>X>X>X>X>X>X>X>X>X>X>X>X>X>X>X>X>X>X>X>X>X>X>X>X>X>X>X>X>X>X>X>X>X>X",
">X>X>X>X>X>X>X>X>X>X>X>X>X>X>X>X>X>X>X>X>X>X>X>X>X>X>X>X>X>X>X>X>X>X>X>X>X>X>X>X>X>X>X>X>X>X>X>X>X>X>X>X>X>X>X>X>X>X>X>X>X>X>X>X",
">X>X>X>X>X>X>X>X>X>X>X>X>X>X>X>X>X>X>X>X>X>X>X>X>X>X>X>X>X>X>X>X>X>X>X>X>X>X>X>X>X>X>X>X>X>X>X>X>X>X>X>X>X>X>X>X>X>X>X>X>X>X>X>X",
">X>X>X>X>X>X>X>X>X>X>X>X>X>X>X>X>X>X>X>X>X>X>X>X>X>X>X>X>X>X>X>X>X>X>X>X>X>X>X>X>X>X>X>X>X>X>X>X>X>X>X>X>X>X>X>X>X>X>X>X>X>X>X>X",
">X>X>X>X>X>X>X>X>X>X>X>X>X>X>X>X>X>X>X>X>X>X>X>X>X>X>X>X>X>X>X>X>X>X>X>X>X>X>X>X>X>X>X>X>X>X>X>X>X>X>X>X>X>X>X>X>X>X>X>X>X>X>X>X",
">X>X>X>X>X>X>X>X>X>X>X>X>X>X>X>X>X>X>X>X>X>X>X>X>X>X>X>X>X>X>X>X>X>X>X>X>X>X>X>X>X>X>X>X>X>X>X>X>X>X>X>X>X>X>X>X>X>X>X>X>X>X>X>X"
};
