/* XPM */
static char *result[] = {
/* columns rows colors chars-per-pixel */
"64 64 201 2 ",
"   c #216400",
".  c #2E7C00",
"X  c #2F7500",
"o  c #347D00",
"O  c #158300",
"+  c #168D00",
"@  c #1A8D00",
"#  c #169400",
"$  c #199B00",
"%  c #1B9000",
"&  c #2E8100",
"*  c #308300",
"=  c #229B00",
"-  c #209600",
";  c #16A300",
":  c #1DA100",
">  c #16AB00",
",  c #16BC00",
"<  c #1BBB00",
"1  c #18B200",
"2  c #28A400",
"3  c #25AA00",
"4  c #2CAB00",
"5  c #21A100",
"6  c #31AC00",
"7  c #3BAC00",
"8  c #23BB00",
"9  c #2DBC00",
"0  c #23B700",
"q  c #35B500",
"w  c #3DB400",
"e  c #35BB00",
"r  c #46AA00",
"t  c #56A700",
"y  c #43BD00",
"u  c #4EB300",
"i  c #5DBD00",
"p  c #69B700",
"a  c #16C400",
"s  c #1CC500",
"d  c #15CC00",
"f  c #1BCA00",
"g  c #15D400",
"h  c #14DB00",
"j  c #24C500",
"k  c #2BC600",
"l  c #35C100",
"z  c #3BC400",
"x  c #36C800",
"c  c #3DCB00",
"v  c #39D102",
"b  c #14E400",
"n  c #13EB00",
"m  c #1BEC00",
"M  c #12F500",
"N  c #1BF700",
"B  c #26EC0C",
"V  c #29E900",
"C  c #34EB00",
"Z  c #39E203",
"A  c #24F70C",
"S  c #28EA10",
"D  c #3AED1B",
"F  c #34EF17",
"G  c #38F81B",
"H  c #44C400",
"J  c #4DC700",
"K  c #45CC00",
"L  c #4CCC01",
"P  c #4CD100",
"I  c #49D901",
"U  c #53D301",
"Y  c #58DE03",
"T  c #57CB14",
"R  c #5AD518",
"E  c #61D51D",
"W  c #5ECD27",
"Q  c #5AD625",
"!  c #5EDE3D",
"~  c #65D22A",
"^  c #69D929",
"/  c #6CDB32",
"(  c #74DC39",
")  c #79DE3C",
"_  c #71DF31",
"`  c #43EE2B",
"'  c #46EE2A",
"]  c #45F02B",
"[  c #48F02C",
"{  c #46F82E",
"}  c #50F22E",
"|  c #4BEF31",
" . c #5FE13E",
".. c #4AF831",
"X. c #54F135",
"o. c #5DF33B",
"O. c #57F838",
"+. c #69F42A",
"@. c #67E432",
"#. c #78E238",
"$. c #67F33F",
"%. c #7AC948",
"&. c #7BD54A",
"*. c #7EDC4B",
"=. c #7CDC44",
"-. c #5FF840",
";. c #7DE344",
":. c #6CF444",
">. c #63F941",
",. c #6DF449",
"<. c #69F744",
"1. c #72F447",
"2. c #7CF643",
"3. c #77F843",
"4. c #78FB44",
"5. c #71F54A",
"6. c #79F64D",
"7. c #74F84B",
"8. c #75EC56",
"9. c #75F652",
"0. c #7DF751",
"q. c #75FA51",
"w. c #7DFB57",
"e. c #80E23F",
"r. c #80C946",
"t. c #82D94A",
"y. c #89D149",
"u. c #93D94A",
"i. c #82E444",
"p. c #85E54A",
"a. c #89E74B",
"s. c #8AEA4D",
"d. c #84E844",
"f. c #83F949",
"g. c #8DED52",
"h. c #91EE54",
"j. c #93E45D",
"k. c #96EB5D",
"l. c #84F652",
"z. c #8EF353",
"x. c #83F853",
"c. c #8AF956",
"v. c #84F95B",
"b. c #8EFD5D",
"n. c #80F758",
"m. c #90F354",
"M. c #93F35B",
"N. c #91FB5F",
"B. c #93F855",
"V. c #8FFA61",
"C. c #93FB64",
"Z. c #9BF66D",
"A. c #96F96C",
"S. c #99F766",
"D. c #9EF571",
"F. c #9AF972",
"G. c #9FFA7A",
"H. c #A3F474",
"J. c #A1FB73",
"K. c #A3F779",
"L. c #A5FA7D",
"P. c #A9FB7D",
"I. c #A5F982",
"U. c #ABF985",
"Y. c #ABF98B",
"T. c #B1FC86",
"R. c #B6FC8D",
"E. c #B2FA95",
"W. c #B4FA9B",
"Q. c #BBFC96",
"!. c #BAFAA4",
"~. c #BFFBAB",
"^. c #B6FBA0",
"/. c #C1FC9F",
"(. c #D6FC9E",
"). c #C3FCA3",
"_. c #C2FBAD",
"`. c #C9FCAE",
"'. c #D4FDA7",
"]. c #C5FBB2",
"[. c #CBFBBC",
"{. c #CFFCB5",
"}. c #D3FDBC",
"|. c #CBFBC1",
" X c #D8FDC5",
".X c #D4FCCC",
"XX c #DBFDCB",
"oX c #D6FDC1",
"OX c #DBFCD3",
"+X c #DFFCDA",
"@X c #E3FDDB",
"#X c #E3FDD6",
"$X c #E3FDE1",
"%X c #EAFDE3",
"&X c #EDFEEB",
"*X c #F1FEEE",
"=X c #FCFFEC",
"-X c #F4FEF3",
";X c #F9FEF7",
":X c #FEFFFE",
">X c None",
/* pixels */
">X>X>X>X>X>X>X>X>X>X>X>X>X>X>X>X>X>X>X>X>X>X>X>X>X>X>X>X>X>X>X>X>X>X>X>X>X>X>X>X>X>X>X>X>X>X>X>X>X>X>X>X>X>X>X>X>X>X>X>X>X>X>X>X",
">X>X>X>X>X>X>X>X>X>X>X>X>X>X>X>X>X>X>X>X>X>X>X>X>X>X>X>X>X>X>X>X>X>X>X>X>X>X>X>X>X>X>X>X>X>X>X>X>X>X>X>X>X>X>X>X>X>X>X>X>X>X>X>X",
">X>X>X>X>X>X>X>X>X>X>X>X>X>X>X>X>X>X>X>X>X>X>X>X>X>X>X>X>X>X>X>X>X>X>X>X>X>X>X>X>X>X>X>X>X>X>X>X>X>X>X>X>X>X>X>X>X>X>X>X>X>X>X>X",
">X>X>X>X>X>X>X>X>X>X>X>X>X>X>X>X>X>X>X>X>X>X>X>X>X>X>X>X>X>X>X>X>X>X>X>X>X>X>X>X>X>X>X>X>X>X>X>X>X>X>X>X>X>X>X>X>X>X>X>X>X>X>X>X",
">X>X>X>X>X>X>X>X>X>X>X>X>X>X>X>X>X>X>X>X>X>X>X>X>X>X>X>X>X>X>X>X>X>X>X>X>X>X>X>X>X>X>X>X>X>X>X>X>X>X>X>X>X>X>X>X>X>X>X>X>X>X>X>X",
">X>X>X>X>X>X>X>X>X>X>X>X>X>X>X>X>X>X>X>X>X>X>X>X>X>X>X>X>X>X>X>X>X>X>X>X>X>X>X>X>X>X>X>X>X>X>X>X>X>X>X>X>X>X>X>X>X>X>X>X>X>X>X>X",
">X>X>X>X>X>X>X>X>X>X>X>X>X>X>X>X>X>X>X>X>X>X>X>X>X>X>X>X>X>X>X>X>X>X>X>X>X>X>X>X>X>X>X>X>X>X>X>X>X>X>X>X>X>X>X>X>X>X>X>X>X>X>X>X",
">X>X>X>X>X>X>X>X>X>X>X>X>X>X>X>X>X>X>X>X>X>X>X>X>X>X>X>X>X>X>X>X>X>X>X>X>X>X>X>X>X>X>X>X>X>X>X>Xn Z L >X>X>X>X>X>X>X>X>X>X>X>X>X",
">X>X>X>X>X>X>X>X>X>X>X>X>X>X>X>X>X>X>X>X>X>X>X>X>X>X>X>X>X>X>X>X>X>X>X>X>X>X>X>X>X>X>X>X>X>XM q.K.}.H.p >X>X>X>X>X>X>X>X>X>X>X>X",
">X>X>X>X>X>X>X>X>X>X>X>X>X>X>X>X>X>X>X>X>X>X>X>X>X>X>X>X>X>X>X>X>X>X>X>X>X>X>X>X>X>X>X>XM O.F. X;X:X|.r.o >X>X>X>X>X>X>X>X>X>X>X",
">X>X>X>X>X>X>X>X>X>X>X>X>X>X>X>X>X>X>X>X>X>X>X>X>X>X>X>X>X>X>X>X>X>X>X>X>X>X>X>X>X>X>XG C.`.-X:X:X:X|.&.& >X>X>X>X>X>X>X>X>X>X>X",
">X>X>X>X>X>X>X>X>X>X>X>X>X>X>X>X>X>X>X>X>X>X>X>X>X>X>X>X>X>X>X>X>X>X>X>X>X>X>X>X>XM w.Q.%X:X&XW.c.:X|.&.& >X>X>X>X>X>X>X>X>X>X>X",
">X>X>X>X>X>X>X>X>X>X>X>X>X>X>X>X>X>X>X>X>X>X>X>X>X>X>X>X>X>X>X>X>X>X>X>X>X>X>XM >.P.OX:X;X[.B.+.2.:X|.&.& >X>X>X>X>X>X>X>X>X>X>X",
">X>X>X>X>X>X>X>X>X>X>X>X>X>X>X>X>X>X>X>X>X>X>X>X>X>X>X>X>X>X>X>X>X>X>X>X>X>X..C.}.;X:X.XZ.=.c b 3.:X|.t.* >X>X>X>X>X>X>X>X>X>X>X",
">X>X>X>X>X>X>X>X>X>X>X>X>X>X>X>X>X>X>X>X>X>X>X>X>X>X>X>X>X>X>X>X>X>X>X>XN C.).*X:X$XR.p.y = > b 3.:X|.t.* >X>X>X>X>X>X>X>X>X>X>X",
">X>X>X>X>X>X>X>X>X>X>X>X>X>X>X>X>X>X>X>X>X>X>X>X>X>X>X>X>X>X>X>X>X>XM q.R.@X:X-X!.g.T 4 + >X>XM 4.:X|.t.* >X>X>X>X>X>X>X>X>X>X>X",
">X>X>X>X>X>X>X>X>X>X>X>X>X>X>X>X>X>X>X>X>X>X>X>X>X>X>X>X>X>X>X>XM >.J.XX:X;X[.S./ l 1 > >X>X>XM 4.:X|.t.* >X>X>X>X>X>X>X>X>X>X>X",
">X>X>X>X>X>X>X>X>X>X>X>X>X>X>X>X>X>X>X>X>X>X>X>X>X>X>X>X>X>X>X{ V.{.;X:XOXK.=.z < a g ! *.i >Xb 4.:X|.t.* >X>X>X>X>X>X>X>X>X>X>X",
">X>X>X>X>X>X>X>X>X>X>X>X>X>X>X>X>X>X>X>X>X>X>X>X>X>X>X>X>XM v.).&X:X&XE.s.K 0 a h ` N.].[.u.u h 3.:X|.t.* >X>X>X>X>X>X>X>X>X>X>X",
">X>X>X>X>X>X>X>X>X>X>X>X>X>X>X>X>X>X>X>X>X>X>X>X>X>X>XM q.T.#X:X-X].g.Q 9 , g n V.Q.&X:X$Xk.r g 3.:X|.t.* >X>X>X>X>X>X>X>X>X>X>X",
">X>X>X>X>X>X>X>X>X>X>X>X>X>X>X>X>X>X>X>X>X>X>X>X>XM O.J. X;X:X|.Z._ l < d h 9.U.@X:X:X:X$Xj.q d 3.:X|.t.& >X>X>X>X>X>X>X>X>X>X>X",
">X>X>X>X>X>X>X>X>X>X>X>X>X>X>X>X>X>X>X>X>X>X>X>XG C.`.-X:X@XI.;.H < a h X.J. X:X:X|.D.&X$Xj.w d 3.:X|.t.* >X>X>X>X>X>X>X>X>X>X>X",
">X>X>X>X>X>X>X>X>X>X>X>X>X>X>X>X>X>X>X>X>X>XM v.Q.$X:X&XW.g.L 9 , g D C.`.-X:X+XI.2.b.@X$Xj.7 d 3.:X|.t.* >X>X>X>X>X>X>X>X>X>X>X",
">X>X>X>X>X>X>X>X>X>X>X>X>X>X>X>X>X>X>X>XM <.P.OX:X;X[.z.~ e , d b w.Q.&X:X&XW.g.P V c.$X$Xk.w d 3.:X|.t.* >X>X>X>X>X>X>X>X>X>X>X",
">X>X>X>X>X>X>X>X>X>X>X>X>X>X>X>X>X>X>X..C.oX;X:X.XD.( z < a b ,.P.OX:X;X].g.W 6 > g b.$X$Xk.y d 3.:X|.t.* >X>X>X>X>X>X>X>X>X>X>X",
">X>X>X>X>X>X>X>X>X>X>X>X>X>X>X>X>XA C.).-X:X$XU.p.K < a h | C. X;X:X.XA.( 6 @ >X>Xn b.@X$Xk.w d 3.:X|.t.* >X>X>X>X>X>X>X>X>X>X>X",
">X>X>X>X>X>X>X>X>X>X>X>X>X>X>XM q.R.%X:X*X!.g.T 9 a g S V.).-X:X$XI.t.e - >X>X>X>X>Xb.$X$Xk.w d 3.:X|.t.* >X>X>X>X>X>X>X>X>X>X>X",
">X>X>X>X>X>X>X>X>X>X>X>X>XM >.L.XX:X;X[.M./ l , d b 9.R.%X:X*X^.h.T 2 . >X>X>X>X>X>XN.$X$Xk.w d 3.:X|.t.* >X>X>X>X>X>X>X>X>X>X>X",
">X>X>X>X>X>X>X>X>X>X>X>X..b.}.;X:XOXD.;.z < a h -.L.XX:X;X|.M.~ 6 O >X>X>X>X>X>X>X>XN.$X$Xk.w d 3.:X|.t.* >X>X>X>X>X>X>X>X>X>X>X",
">X>X>X>X>X>X>X>X>X>XM b./.*X:X$XE.s.K 0 a g ` N.}.;X:X.XH.=.w % >X>X>X>X>X>X>X>X>X>Xb.$X$Xk.y d 3.:X|.t.* >X>X>X>X>X>X>X>X>X>X>X",
">X>X>X>X>X>X>X>X>Xw.U.#X:X-X~.g.W 4 ; a b b.).*X:X$XE.p.y = >X>X>X>X>X>X>X>X>X>X>X>Xb.$X$Xk.w d 3.:X|.t.* >X>X>X>X>X>X>X>X>X>X>X",
">X>X>X>X>X>X>X>Xb. X:X:X|.Z.@.q + >X>X8.R.@X:X-X_.l.Q 2 O >X>X>X>X>X>X>X>X>X>X>X>X>Xb.$X$Xk.w d 3.:X|.t.* >X>X>X>X>X>X>X>X>X>X>X",
">X>X>X>X>X>X>X>XC.:X:X|.N.C f # >X>X>Xx.-X:X:XW.1.C , + >X>X>X>X>X>X>X>X>X>X>X>X>X>Xb.$X$Xk.y d 3.:X|.t.* >X>X>X>X>X>X>X>X>X>X>X",
">X>X>X>X>X>X>X>Xx.|.;X:XoXZ.@.e $ >X>X5.L.OX:X-X_.l.Q 4 # >X>X>X>X>X>X>X>X>X>X>X>X>XN.$X$Xk.w d 3.:X|.t.* >X>X>X>X>X>X>X>X>X>X>X",
">X>X>X>X>X>X>X>X>X7.K.OX:X-X_.g.~ e 1 g n 0.E.&X:X$XE.a.J 3 >X>X>X>X>X>X>X>X>X>X>X>Xb.$X$Xk.w d 3.:X|.t.* >X>X>X>X>X>X>X>X>X>X>X",
">X>X>X>X>X>X>X>X>X>XM 6.W.&X:X$XE.s.U j d h ` l.].;X:XXXD.t.H = >X>X>X>X>X>X>X>X>X>Xb.$X$Xk.w d 3.:X|.t.* >X>X>X>X>X>X>X>X>X>X>X",
">X>X>X>X>X>X>X>X>X>X>Xn ] x.].;X:XOXK.i.L s g b o.F.|.:X;X|.M./ q : >X>X>X>X>X>X>X>Xb.$X$Xk.w d 3.:X|.t.& >X>X>X>X>X>X>X>X>X>X>X",
">X>X>X>X>X>X>X>X>X>X>X>X>Xn o.A.|.:X;X[.M._ c d g b 1.I.@X:X*X^.h.T 6 >X>X>X>X>X>X>XN.$X$Xk.w d 3.:X|.t.* >X>X>X>X>X>X>X>X>X>X>X",
">X>X>X>X>X>X>X>X>X>X>X>X>X>X>Xn 5.I.@X:X-X^.m.E k f h B x.W.&X:X$XU.a.J 3 >X>X>X>X>XN.$X$Xk.w g 3.:X|.t.* >X>X>X>X>X>X>X>X>X>X>X",
">X>X>X>X>X>X>X>X>X>X>X>X>X>X>X>X>XB x.W.*X:X@XU.a.P j d h | c.[.;X:X.XZ.) y : >X>X>Xb.$X$Xk.w d 3.:X|.t.* >X>X>X>X>X>X>X>X>X>X>X",
">X>X>X>X>X>X>X>X>X>X>X>X>X>X>X>X>X>Xn [ c.].;X:X.XD.#.K s g b <.F..X:X;X].z.~ q < b b.$X$Xk.w d 3.:X|.t.* >X>X>X>X>X>X>X>X>X>X>X",
">X>X>X>X>X>X>X>X>X>X>X>X>X>X>X>X>X>X>X>Xn <.F..X:X;X[.z.^ x f g b 6.Y.$X:X&XW.h.Y V c.$X$Xk.w d 3.:X|.t.* >X>X>X>X>X>X>X>X>X>X>X",
">X>X>X>X>X>X>X>X>X>X>X>X>X>X>X>X>X>X>X>X>X>Xn 6.U.$X:X&XW.h.U k d h D x.!.-X:X@XP.f.F.%X$Xj.w d 3.:X|.t.* >X>X>X>X>X>X>X>X>X>X>X",
">X>X>X>X>X>X>X>X>X>X>X>X>X>X>X>X>X>X>X>X>X>X>X>XD x.!.-X:X@XP.d.P j d b X.V.|.;X:X|.'.=X$Xj.w d 3.:X|.t.* >X>X>X>X>X>X>X>X>X>X>X",
">X>X>X>X>X>X>X>X>X>X>X>X>X>X>X>X>X>X>X>X>X>X>X>X>Xn X.C.[.;X:X|.Z.#.c f g b ,.G.OX:X:X:X$Xj.7 d 3.:X|.t.* >X>X>X>X>X>X>X>X>X>X>X",
">X>X>X>X>X>X>X>X>X>X>X>X>X>X>X>X>X>X>X>X>X>X>X>X>X>X>Xn 5.G.OX:X;X].g.^ x d g n 0.E.%X:X$Xj.7 d 3.:X|.t.* >X>X>X>X>X>X>X>X>X>X>X",
">X>X>X>X>X>X>X>X>X>X>X>X>X>X>X>X>X>X>X>X>X>X>X>X>X>X>X>X>Xn 0.E.$X:X&XE.s.P k d h ` l.~.[.y.r d 3.:X|.t.* >X>X>X>X>X>X>X>X>X>X>X",
">X>X>X>X>X>X>X>X>X>X>X>X>X>X>X>X>X>X>X>X>X>X>X>X>X>X>X>X>X>X>X] x.~.;X:XOXK.d.K j g h ! &.r $ h 3.:X|.t.* >X>X>X>X>X>X>X>X>X>X>X",
">X>X>X>X>X>X>X>X>X>X>X>X>X>X>X>X>X>X>X>X>X>X>X>X>X>X>X>X>X>X>X>Xn o.A.|.:X;X[.S._ c , , >X>X>Xn 3.:X|.t.* >X>X>X>X>X>X>X>X>X>X>X",
">X>X>X>X>X>X>X>X>X>X>X>X>X>X>X>X>X>X>X>X>X>X>X>X>X>X>X>X>X>X>X>X>X>Xn 5.L.+X:X-X!.g.E e ; >X>XM 4.:X|.t.* >X>X>X>X>X>X>X>X>X>X>X",
">X>X>X>X>X>X>X>X>X>X>X>X>X>X>X>X>X>X>X>X>X>X>X>X>X>X>X>X>X>X>X>X>X>X>X>Xm x.W.&X:X$XY.s.J 3 a n 3.:X|.t.* >X>X>X>X>X>X>X>X>X>X>X",
">X>X>X>X>X>X>X>X>X>X>X>X>X>X>X>X>X>X>X>X>X>X>X>X>X>X>X>X>X>X>X>X>X>X>X>X>Xn [ l.[.;X:X.XZ.i.I m 4.:X|.t.* >X>X>X>X>X>X>X>X>X>X>X",
">X>X>X>X>X>X>X>X>X>X>X>X>X>X>X>X>X>X>X>X>X>X>X>X>X>X>X>X>X>X>X>X>X>X>X>X>X>X>Xn $.F..X:X;X[.B.+.c.:X|.*.& >X>X>X>X>X>X>X>X>X>X>X",
">X>X>X>X>X>X>X>X>X>X>X>X>X>X>X>X>X>X>X>X>X>X>X>X>X>X>X>X>X>X>X>X>X>X>X>X>X>X>X>X>Xn 7.U.$X:X*XW.(.:X|.&.& >X>X>X>X>X>X>X>X>X>X>X",
">X>X>X>X>X>X>X>X>X>X>X>X>X>X>X>X>X>X>X>X>X>X>X>X>X>X>X>X>X>X>X>X>X>X>X>X>X>X>X>X>X>X>XF c.^.-X:X:X:X|.%.. >X>X>X>X>X>X>X>X>X>X>X",
">X>X>X>X>X>X>X>X>X>X>X>X>X>X>X>X>X>X>X>X>X>X>X>X>X>X>X>X>X>X>X>X>X>X>X>X>X>X>X>X>X>X>X>Xn [ b.[.;X:X|.%.X >X>X>X>X>X>X>X>X>X>X>X",
">X>X>X>X>X>X>X>X>X>X>X>X>X>X>X>X>X>X>X>X>X>X>X>X>X>X>X>X>X>X>X>X>X>X>X>X>X>X>X>X>X>X>X>X>X>Xn 1.F.|.H.t   >X>X>X>X>X>X>X>X>X>X>X",
">X>X>X>X>X>X>X>X>X>X>X>X>X>X>X>X>X>X>X>X>X>X>X>X>X>X>X>X>X>X>X>X>X>X>X>X>X>X>X>X>X>X>X>X>X>X>X>Xb x w >X>X>X>X>X>X>X>X>X>X>X>X>X",
">X>X>X>X>X>X>X>X>X>X>X>X>X>X>X>X>X>X>X>X>X>X>X>X>X>X>X>X>X>X>X>X>X>X>X>X>X>X>X>X>X>X>X>X>X>X>X>X>X>X>X>X>X>X>X>X>X>X>X>X>X>X>X>X",
">X>X>X>X>X>X>X>X>X>X>X>X>X>X>X>X>X>X>X>X>X>X>X>X>X>X>X>X>X>X>X>X>X>X>X>X>X>X>X>X>X>X>X>X>X>X>X>X>X>X>X>X>X>X>X>X>X>X>X>X>X>X>X>X",
">X>X>X>X>X>X>X>X>X>X>X>X>X>X>X>X>X>X>X>X>X>X>X>X>X>X>X>X>X>X>X>X>X>X>X>X>X>X>X>X>X>X>X>X>X>X>X>X>X>X>X>X>X>X>X>X>X>X>X>X>X>X>X>X",
">X>X>X>X>X>X>X>X>X>X>X>X>X>X>X>X>X>X>X>X>X>X>X>X>X>X>X>X>X>X>X>X>X>X>X>X>X>X>X>X>X>X>X>X>X>X>X>X>X>X>X>X>X>X>X>X>X>X>X>X>X>X>X>X",
">X>X>X>X>X>X>X>X>X>X>X>X>X>X>X>X>X>X>X>X>X>X>X>X>X>X>X>X>X>X>X>X>X>X>X>X>X>X>X>X>X>X>X>X>X>X>X>X>X>X>X>X>X>X>X>X>X>X>X>X>X>X>X>X",
">X>X>X>X>X>X>X>X>X>X>X>X>X>X>X>X>X>X>X>X>X>X>X>X>X>X>X>X>X>X>X>X>X>X>X>X>X>X>X>X>X>X>X>X>X>X>X>X>X>X>X>X>X>X>X>X>X>X>X>X>X>X>X>X"
};
