/* XPM */
static char *b2cc29b4a4d94851f065c7c6d47dda2ebi9ejo2JG3ver8g6[] = {
/* columns rows colors chars-per-pixel */
"64 64 201 2 ",
"   c None",
".  c #216400",
"X  c #2E7C00",
"o  c #2F7500",
"O  c #347D00",
"+  c #158300",
"@  c #168D00",
"#  c #1A8D00",
"$  c #169400",
"%  c #199B00",
"&  c #1B9000",
"*  c #2E8100",
"=  c #308300",
"-  c #229B00",
";  c #209600",
":  c #16A300",
">  c #1DA100",
",  c #16AB00",
"<  c #16BC00",
"1  c #1BBB00",
"2  c #18B200",
"3  c #28A400",
"4  c #25AA00",
"5  c #2CAB00",
"6  c #21A100",
"7  c #31AC00",
"8  c #3BAC00",
"9  c #23BB00",
"0  c #2DBC00",
"q  c #23B700",
"w  c #35B500",
"e  c #3DB400",
"r  c #35BB00",
"t  c #46AA00",
"y  c #56A700",
"u  c #43BD00",
"i  c #4EB300",
"p  c #5DBD00",
"a  c #69B700",
"s  c #16C400",
"d  c #1CC500",
"f  c #15CC00",
"g  c #1BCA00",
"h  c #15D400",
"j  c #14DB00",
"k  c #24C500",
"l  c #2BC600",
"z  c #35C100",
"x  c #3BC400",
"c  c #36C800",
"v  c #3DCB00",
"b  c #39D102",
"n  c #14E400",
"m  c #13EB00",
"M  c #1BEC00",
"N  c #12F500",
"B  c #1BF700",
"V  c #26EC0C",
"C  c #29E900",
"Z  c #34EB00",
"A  c #39E203",
"S  c #24F70C",
"D  c #28EA10",
"F  c #3AED1B",
"G  c #34EF17",
"H  c #38F81B",
"J  c #44C400",
"K  c #4DC700",
"L  c #45CC00",
"P  c #4CCC01",
"I  c #4CD100",
"U  c #49D901",
"Y  c #53D301",
"T  c #58DE03",
"R  c #57CB14",
"E  c #5AD518",
"W  c #61D51D",
"Q  c #5ECD27",
"!  c #5AD625",
"~  c #5EDE3D",
"^  c #65D22A",
"/  c #69D929",
"(  c #6CDB32",
")  c #74DC39",
"_  c #79DE3C",
"`  c #71DF31",
"'  c #43EE2B",
"]  c #46EE2A",
"[  c #45F02B",
"{  c #48F02C",
"}  c #46F82E",
"|  c #50F22E",
" . c #4BEF31",
".. c #5FE13E",
"X. c #4AF831",
"o. c #54F135",
"O. c #5DF33B",
"+. c #57F838",
"@. c #69F42A",
"#. c #67E432",
"$. c #78E238",
"%. c #67F33F",
"&. c #7AC948",
"*. c #7BD54A",
"=. c #7EDC4B",
"-. c #7CDC44",
";. c #5FF840",
":. c #7DE344",
">. c #6CF444",
",. c #63F941",
"<. c #6DF449",
"1. c #69F744",
"2. c #72F447",
"3. c #7CF643",
"4. c #77F843",
"5. c #78FB44",
"6. c #71F54A",
"7. c #79F64D",
"8. c #74F84B",
"9. c #75EC56",
"0. c #75F652",
"q. c #7DF751",
"w. c #75FA51",
"e. c #7DFB57",
"r. c #80E23F",
"t. c #80C946",
"y. c #82D94A",
"u. c #89D149",
"i. c #93D94A",
"p. c #82E444",
"a. c #85E54A",
"s. c #89E74B",
"d. c #8AEA4D",
"f. c #84E844",
"g. c #83F949",
"h. c #8DED52",
"j. c #91EE54",
"k. c #93E45D",
"l. c #96EB5D",
"z. c #84F652",
"x. c #8EF353",
"c. c #83F853",
"v. c #8AF956",
"b. c #84F95B",
"n. c #8EFD5D",
"m. c #80F758",
"M. c #90F354",
"N. c #93F35B",
"B. c #91FB5F",
"V. c #93F855",
"C. c #8FFA61",
"Z. c #93FB64",
"A. c #9BF66D",
"S. c #96F96C",
"D. c #99F766",
"F. c #9EF571",
"G. c #9AF972",
"H. c #9FFA7A",
"J. c #A3F474",
"K. c #A1FB73",
"L. c #A3F779",
"P. c #A5FA7D",
"I. c #A9FB7D",
"U. c #A5F982",
"Y. c #ABF985",
"T. c #ABF98B",
"R. c #B1FC86",
"E. c #B6FC8D",
"W. c #B2FA95",
"Q. c #B4FA9B",
"!. c #BBFC96",
"~. c #BAFAA4",
"^. c #BFFBAB",
"/. c #B6FBA0",
"(. c #C1FC9F",
"). c #D6FC9E",
"_. c #C3FCA3",
"`. c #C2FBAD",
"'. c #C9FCAE",
"]. c #D4FDA7",
"[. c #C5FBB2",
"{. c #CBFBBC",
"}. c #CFFCB5",
"|. c #D3FDBC",
" X c #CBFBC1",
".X c #D8FDC5",
"XX c #D4FCCC",
"oX c #DBFDCB",
"OX c #D6FDC1",
"+X c #DBFCD3",
"@X c #DFFCDA",
"#X c #E3FDDB",
"$X c #E3FDD6",
"%X c #E3FDE1",
"&X c #EAFDE3",
"*X c #EDFEEB",
"=X c #F1FEEE",
"-X c #FCFFEC",
";X c #F4FEF3",
":X c #F9FEF7",
">X c #FEFFFE",
/* pixels */
"                                                                                                                                ",
"                                                                                                                                ",
"                                                                                                                                ",
"                                                                                                                                ",
"                                                                                                                                ",
"                                                                                                                                ",
"                          e b n                                                                                                 ",
"                      . y J.{.G.2.m                                                                                             ",
"                      o &. X>X:X Xn.| m                                                                                         ",
"                      X &. X>X>X>X;X/.c.G                                                                                       ",
"                      * *. X>X).Q.=X>X#XT.7.m                                                                                   ",
"                      * *. X>Xv.@.V.{.:X>XXXG.%.m                                                                               ",
"                      = y. X>X5.M U :.G.XX>X:X{.z.{ m                                                                           ",
"                      = y. X>X5.m < 4 P d.T.%X>X*XQ.c.M                                                                         ",
"                      = y. X>X5.N     % w E h.~.;X>X#XP.6.m                                                                     ",
"                      = y. X>X5.N       < d v ( D. X:X>X XZ.O.m                                                                 ",
"                      = y. X>X4.j 6 t *.~ h f d K p.L.+X>X:X`.c.[                                                               ",
"                      = y. X>X4.f t u.{.[.z.' j f k U d.Q.&X>X&XW.q.m                                                           ",
"                      = y. X>X4.f 8 k.%X>X&XW.q.n j f c / x.`.;X>X+XH.<.m                                                       ",
"                      = y. X>X4.f w k.%X>X>X>X+XH.<.n h d v $.A. X>X:X XZ.o.m                                                   ",
"                      = y. X>X4.f w k.%X-X]. X>X:X XC.o.j h k I f.U.#X>X;X~.c.G                                                 ",
"                      = y. X>X4.f e l.%X&XG.g.U.#X>X;X~.c.F j f l Y j.Q.=X>X%XY.7.m                                             ",
"                      = y. X>X4.f e l.%X%Xv.Z T h.Q.*X>X%XT.0.n h g v / M.{.:X>XXXS.1.m                                         ",
"                      * y. X>X4.f e l.%X%Xv.n < e ^ M.[.:X>XXXS.1.n h d L $.A.XX>X:X{.v.{ m                                     ",
"                      = y. X>X4.f e l.%X%Xn.      > u $.A.XX>X:X{.c. .j f k I s.T.%X>X=XQ.c.V                                   ",
"                      = y. X>X4.f e l.%X%Xn.          4 K s.Y.%X>X=XQ.c.D j f c E h.~.=X>X#XU.8.m                               ",
"                      = y. X>X4.f e l.%X%XB.              7 R j.~.=X>X#XU.6.n h d v ` N. X:X>X XS.O.m                           ",
"                      = y. X>X4.f u l.%X%Xn.                > e / N. X:X>X XS.O.n h g L p.K.+X>X:X[.c.] m                       ",
"                      = y. X>X4.f e l.%X%XB.                    > J p.F.+X>X:X[.c.' j f k Y d.W.%X>X*XQ.c.N                     ",
"                      = y. X>X4.f e l.%X%XB.                        3 K s.W.%X>X*XW.q.m h < r ^ d.`.;X>X+XH.8.                  ",
"                      = y. X>X4.f e l.%X%Xn.                          $ 5 ! z.`.:X>X+XP.6.    % r #.S. X>X:X{.c.                ",
"                      = y. X>X4.f e l.%X#XB.                            @ 1 Z 2.Q.>X>X;Xz.      % k Z N. X>X>XZ.                ",
"                      = y. X>X4.h e l.%X%Xn.                          + 3 ! z.^.;X>X$XE.9.    @ w #.S. X>X>X.Xv.                ",
"                      = y. X>X4.f e l.%X%XB.                        - u s.W.%X>X=X_.b.n d : 5 Q h.^.;X>X#XR.e.                  ",
"                      = y. X>X4.f u l.%X%Xn.                    & e -.F.+X>X:X|.Z.' h s 9 J d.W.&X>X=X_.n.N                     ",
"                      * y. X>X4.f e l.%X%XB.                + 3 ^ N. X:X>XoXL.%.n s 1 z :.F.+X>X:X}.B.}                         ",
"                      = y. X>X4.f e l.%X%Xn.            + 3 R h.~.;X>X&XE.0.n f < r ( N. X:X>XoXL.,.N                           ",
"                      = y. X>X4.f e l.%X#XB.          ; e a.U.%X>X;X_.C.V h < 0 E h./.;X>X&XE.w.N                               ",
"                      = y. X>X4.f e l.%X%Xn.m     # e ) A.XX>X:XOXD. .j s 1 L a.T.#X>X;X_.Z.S                                   ",
"                      = y. X>X4.f e l.%X#XB.h : 5 Q j.[.:X>X$XI.<.n f 1 z $.A.XX>X:XOXD.X.                                      ",
"                      = y. X>X4.f t l.%X%Xc.C U h.Q.*X>X&X!.e.n f < r ^ x.{.:X>XoXI.1.N                                         ",
"                      = y. X>X4.f e l.%X%Xv.g.U.#X>X;X'.Z.F h s 9 P x.Q.=X>X&X!.b.N                                             ",
"                      = y. X>X4.f 8 k.%X*XJ. X>X:X.XG.o.h s 1 J :.U.@X>X;X'.Z.H                                                 ",
"                      = y. X>X4.f w k.%X>X>X>X$XR.0.n f 1 z ) A. X>X:XOXK.+.N                                                   ",
"                      = y. X>X4.h t k.%X>X*X(.b.m f < 0 ! h.`.;X>X$XR.w.N                                                       ",
"                      = y. X>X4.h i i. X[.n.' h s 9 L h.Q.&X>X*X_.b.N                                                           ",
"                      = y. X>X5.n   p :...j s 1 J :.L.+X>X:X}.Z.}                                                               ",
"                      * y. X>X5.N       , 2 r ( N. X:X>XoXL.,.N                                                                 ",
"                      = y. X>X4.m     $ 5 R h.~.:X>X#XE.w.N                                                                     ",
"                      = y. X>X5.n , - u a.W.%X>X=X_.Z.B                                                                         ",
"                      = y. X>X5.M b _ A.XX>X:X|.Z.X.                                                                            ",
"                      * *. X>X4.@.x.{.:X>XoXU.,.N                                                                               ",
"                      * *. X>Xv.Q.=X>X&X!.e.N                                                                                   ",
"                      X &. X>X:X>X;X'.Z.H                                                                                       ",
"                      O t. X>X:XOXG.+.N                                                                                         ",
"                        a J.OXL.w.N                                                                                             ",
"                          P A m                                                                                                 ",
"                                                                                                                                ",
"                                                                                                                                ",
"                                                                                                                                ",
"                                                                                                                                ",
"                                                                                                                                ",
"                                                                                                                                ",
"                                                                                                                                "
};
