/* XPM */
static char *_f7d335eb2924a81c3280340cc621bf0JenDc3WigvrALnA5[] = {
/* columns rows colors chars-per-pixel */
"64 64 205 2 ",
"   c None",
".  c #206400",
"X  c #2E7C00",
"o  c #2E7400",
"O  c #347D00",
"+  c #158200",
"@  c #168C00",
"#  c #198D00",
"$  c #169400",
"%  c #199B00",
"&  c #1B9000",
"*  c #2E8100",
"=  c #308300",
"-  c #229B00",
";  c #209600",
":  c #16A300",
">  c #1DA100",
",  c #16AB00",
"<  c #16BC00",
"1  c #1BBA00",
"2  c #18B200",
"3  c #23A400",
"4  c #29A400",
"5  c #27AB00",
"6  c #2CAC00",
"7  c #3BAD00",
"8  c #32A900",
"9  c #23BB00",
"0  c #2CBD00",
"q  c #23B700",
"w  c #35B500",
"e  c #3DB400",
"r  c #34BB00",
"t  c #46AA00",
"y  c #56A700",
"u  c #43BD00",
"i  c #4DB300",
"p  c #5DBE00",
"a  c #69B700",
"s  c #15C300",
"d  c #1BC500",
"f  c #15CC00",
"g  c #1ECC00",
"h  c #15D400",
"j  c #14DC00",
"k  c #24C500",
"l  c #2BC700",
"z  c #35C100",
"x  c #3CC400",
"c  c #35C900",
"v  c #3DCA00",
"b  c #39D102",
"n  c #14E400",
"m  c #13EB00",
"M  c #1BEC00",
"N  c #12F600",
"B  c #1CF700",
"V  c #26EC0C",
"C  c #29E900",
"Z  c #34EB00",
"A  c #3AE203",
"S  c #28EA10",
"D  c #3AED1B",
"F  c #33EF17",
"G  c #37F71B",
"H  c #24F70C",
"J  c #44C400",
"K  c #4DC600",
"L  c #45CC00",
"P  c #4CCC01",
"I  c #4CD100",
"U  c #4AD901",
"Y  c #53D301",
"T  c #58DE03",
"R  c #56CB14",
"E  c #5AD518",
"W  c #61D51D",
"Q  c #5ECD26",
"!  c #5AD625",
"~  c #5EDF3D",
"^  c #66D22A",
"/  c #69D929",
"(  c #6CDB32",
")  c #74DC39",
"_  c #79DE3C",
"`  c #71DF31",
"'  c #43EE2B",
"]  c #46EE2A",
"[  c #45F02B",
"{  c #47F42D",
"}  c #50F22E",
"|  c #4BEF31",
" . c #5EE13E",
".. c #4AF831",
"X. c #54F135",
"o. c #5DF23B",
"O. c #56F838",
"+. c #69F42A",
"@. c #67E432",
"#. c #7EE33D",
"$. c #75E134",
"%. c #66F33F",
"&. c #7AC948",
"*. c #7BD54A",
"=. c #7EDC4B",
"-. c #7CDC44",
";. c #5EF940",
":. c #7DE344",
">. c #6CF445",
",. c #63F941",
"<. c #6EF449",
"1. c #69F744",
"2. c #73F446",
"3. c #7CF643",
"4. c #77F843",
"5. c #78FB44",
"6. c #71F44A",
"7. c #79F64D",
"8. c #74F84B",
"9. c #75ED56",
"0. c #75F651",
"q. c #7DF751",
"w. c #76FA51",
"e. c #7DFB57",
"r. c #80C946",
"t. c #82D94A",
"y. c #89D149",
"u. c #93D94A",
"i. c #82E444",
"p. c #85E54A",
"a. c #89E74B",
"s. c #8AEA4D",
"d. c #84E844",
"f. c #83F949",
"g. c #8DED52",
"h. c #91EE54",
"j. c #93E45D",
"k. c #96EB5D",
"l. c #83F652",
"z. c #8EF353",
"x. c #83F853",
"c. c #8AF956",
"v. c #84F95B",
"b. c #8EFD5D",
"n. c #80F758",
"m. c #90F354",
"M. c #93F35B",
"N. c #91FB5F",
"B. c #93F855",
"V. c #8FFA61",
"C. c #93FB64",
"Z. c #9BF66D",
"A. c #97F96C",
"S. c #99F766",
"D. c #9EF571",
"F. c #9AF972",
"G. c #9FFA7A",
"H. c #A3F474",
"J. c #A1FB73",
"K. c #A3F779",
"L. c #A5FA7D",
"P. c #A9FB7D",
"I. c #A5F982",
"U. c #ABFA85",
"Y. c #ABF98B",
"T. c #B6FC8D",
"R. c #B1FC87",
"E. c #B2FA95",
"W. c #B4FA9B",
"Q. c #BBFC96",
"!. c #BAFAA4",
"~. c #BFFBAB",
"^. c #B6FBA0",
"/. c #C1FC9F",
"(. c #D6FC9E",
"). c #C3FCA3",
"_. c #C2FBAD",
"`. c #C9FCAE",
"'. c #D4FDA7",
"]. c #C5FBB2",
"[. c #CBFBBC",
"{. c #CFFCB5",
"}. c #D3FDBC",
"|. c #CBFBC1",
" X c #D8FDC5",
".X c #D4FCCC",
"XX c #DBFDCB",
"oX c #D6FDC1",
"OX c #DBFCD3",
"+X c #DFFCDA",
"@X c #E3FDDB",
"#X c #E3FDD6",
"$X c #E3FDE1",
"%X c #EAFDE3",
"&X c #EDFEEB",
"*X c #F1FEEE",
"=X c #FCFFEC",
"-X c #F4FEF3",
";X c #F9FFF7",
":X c #F9FEF7",
">X c #F9FEF9",
",X c white",
"<X c #FEFFFE",
"1X c #FDFFFC",
"2X c #FEFFFE",
/* pixels */
"                                                                                                                                ",
"                                                                                                                                ",
"                                                                                                                                ",
"                                                                                                                                ",
"                                                                                                                                ",
"                                                                                                                                ",
"                                                                                                                                ",
"                                                                                                                                ",
"                                                              b.C.x.                                                            ",
"                                                            e. X,X[.8.                                                          ",
"                                                          N R.1X,X>XG.N                                                         ",
"                                                          b.#X1X|.,XOXl.m                                                       ",
"                                                        ../.,X|.M.|.,XW.'                                                       ",
"                                                      N N.*X-XA.Z A.-X%Xl.m                                                     ",
"                                                      ,.[.,X~.@.k @._.,X_.o.                                                    ",
"                                                    N L.>X$Xg.w % r z.%X;XA.m                                                   ",
"                                                    w.XX,XE.Q &   % ^ E.,X|.2.                                                  ",
"                                                  H T.,XOXa.4       r s.OX,XI.V                                                 ",
"                                                  V.%X>XD.L :       1 I D.>X@Xl.m                                               ",
"                                                } ).2X|.:.q s 9.c.6.h k i.|.,XW.[                                               ",
"                                              N C.-X*XV.x < n T.-XL.m f L M.-X*Xc.m                                             ",
"                                              1.oX,X!./ 1 j v.#X,XOXq.j d ` !.,X[.%.                                            ",
"                                            N P.>X$Xg.z d ' /.,X,X,XE.[ h v m.$X>XF.m                                           ",
"                                            n.#X1XU.E < j C.*X-XW.-X&Xl.n d E U.,X.X7.                                          ",
"                                          G Q.,X.Xp.0 f o.}.,X~.2.~.,X].o.h l s..X,XU.D                                         ",
"                                        N C.%X>XZ.L < n K.;X%Xl.Z l.%X;XA.n f I D.>X$Xn.m                                       ",
"                                        O.`.,X]._ 1 h 0.XX,XE.! < ! E.,X|.6.j k #.].,X!.X.                                      ",
"                                      N J.-X*Xz.x s S T.,XOXp.4 @ 4 s..X,XI.V f L m.&X-XC.m                                     ",
"                                      w. X,XW.^ 1 j V.%X>XD.u +   $ K D.>X@Xx.j d / W.,X[.>.                                    ",
"                                    N U.>X@Xg.l f | ).,X|.-.-       6 t.|.,XW.[ h c m.#X>XG.m                                   ",
"                                    v.#X,XI.P < j C.-X&XM.e           J M.-X-Xc.n d Y I.,XOXq.                                  ",
"                                  ../.,X|.:.0 f <.oX,X!.^ #           > / ^.,X[.>.h l d.|.,XE.[                                 ",
"                                N V.%X;XZ.L < n P.>X$Xg.8               e m.%X;XF.n f I Z.;X%Xl.m                               ",
"                                ;.{.,X].( 1 h n.#X2XI.R @               % R I.,X.X7.j d $.].,X~.X.                              ",
"                              N K.;X%Xg.x s D Q.,X.Xp.-                   6 a..X,XY.D h v z.%X;XA.m                             ",
"                              w.XX,XW.! 1 j V.%X:XZ.u +                     K Z.>X$Xl.j d / E.,X|.6.                            ",
"                            B T.,XOXs.0 f X.`.,X].) &                       5 _ ].,X!.X.h c g.OX,XL.M                           ",
"                            C.@X>XK.L < n D.;X&Xg.7                           u h.&X-XV.n f Y K.>X+Xx.m                         ",
"                          ..).,X|.:.9 h 0. X,XW.Q #                           > / W.,X|.<.j k d.|.,XW.[                         ",
"                        N C.*X-XS.x < m R.>X+Xg.8                               w g.@X>XG.n f L S.*X&Xl.m                       ",
"                        ,.}.,X!./ 1 j n.@X,XL.U ,                               < T I.,XOXq.j d ` !.,X[.1.                      ",
"                      N P.>X$Xg.r s ' /.,X|.d.C h m                             n C f.|.,XW.' f v g.%X>XA.m                     ",
"                      n.XX,XY.E 2 j C.&X,XD.b.c.b.b.N.b.b.b.b.b.b.b.b.N.b.b.b.b.b.c.D.'.,X$Xl.j s W Y.,X.X7.                    ",
"                    G Q.,X.Xa.4 ,  .`.,X,X&X$X$X@X$X$X$X%X$X$X$X$X$X$X$X@X$X$X$X%X@X%X=X,X,X]. .< w a..X,XI.F                   ",
"                  N C.@X>XF.u @   :.|.$X$X+X$X$X$X$X$X$X$X$X$X$X$X$X$X$X$X$X%X$X@X$X$X$X$X$X[.*.  : K D.>X$Xx.m                 ",
"                  O.`.,X[.:.-     p u.j.j.k.k.k.k.k.k.k.k.k.k.k.k.k.k.k.k.k.k.k.k.k.k.j.j.j.y.t     5 #.[.,X^.}                 ",
"                N F.-X&Xz.b ,       i t 7 7 w e e e u e e e e e e e e u e e e e e e e e 8 7 t >     < U B.*X-Xb.m               ",
"                0. X,XW.+.M j N N n j f f f f f f f s f f f f f f f f f f f f f f f f f f f f j N N m M +.W.,X[.6.              ",
"              m K.>X>Xz.4.5.5.5.5.5.5.4.4.4.5.4.4.4.4.4.5.4.4.4.4.4.4.4.4.4.4.5.4.4.4.4.4.4.5.5.5.5.5.5.c.(.1X>XF.j             ",
"              A }.,X,X,X,X,X,X,X,X,X,X,X,X,X,X,X,X,X,X,X,X,X,X,X,X,X,X,X,X,X,X,X,X,X,X,X,X,X,X,X,X,X,X,X,X,X,X,X[.b             ",
"              P H.|.|.|.|.|.[.|.|.|.|.|.|.|.|.[.|.|.|.|.|.|.|.|.|.|.|.|.|.|.|.|.|.|.|.|.|.|.|.|.|.|.[.|.|.|.|.|.H.e             ",
"                a r.*.*.*.t.t.*.t.t.t.t.t.t.*.t.t.t.t.t.t.t.t.t.t.t.t.t.t.t.t.t.t.*.t.t.t.t.t.t.t.t.t.=.*.*.&.&.y               ",
"                  O X * * * = = = = = = = = = = * * = = = = = = * = = = = = = = = = = = = = = = * * = = * * X o .               ",
"                                                                                                                                ",
"                                                                                                                                ",
"                                                                                                                                ",
"                                                                                                                                ",
"                                                                                                                                ",
"                                                                                                                                ",
"                                                                                                                                ",
"                                                                                                                                ",
"                                                                                                                                ",
"                                                                                                                                ",
"                                                                                                                                "
};
