/* XPM */
static char *_0bcb0007f5244bee00ba2085b52c6c93zWtx2WtJWt8lFyh[] = {
/* columns rows colors chars-per-pixel */
"64 64 139 2 ",
"   c None",
".  c #FFCE00",
"X  c #FFD200",
"o  c #FFDC00",
"O  c #FFD60E",
"+  c #FFD515",
"@  c #FFD61C",
"#  c #FFD81A",
"$  c #FFD523",
"%  c #FFDC25",
"&  c #FFD52B",
"*  c #FED92E",
"=  c #FFD534",
"-  c #FED933",
";  c #FEDB3B",
":  c #FEE131",
">  c #FEE23A",
",  c #FED341",
"<  c #FEDC43",
"1  c #FFD648",
"2  c #FDDE4C",
"3  c #FDDC52",
"4  c #FCDE5C",
"5  c #FEE345",
"6  c #FDE14E",
"7  c #FCE155",
"8  c #F7E35E",
"9  c #FBE35B",
"0  c #FDDF67",
"q  c #F6E565",
"w  c #F9E563",
"e  c #F5E66B",
"r  c #FAE569",
"t  c #F7E869",
"y  c #FAEA6B",
"u  c #F7E771",
"i  c #FCE772",
"p  c #F7EA76",
"a  c #FAEB74",
"s  c #F6E97C",
"d  c #FCEC7F",
"f  c #FDE380",
"g  c #F5EA84",
"h  c #FCED82",
"j  c #F5EB8C",
"k  c #FEEA8D",
"l  c #FCF28C",
"z  c #F6EC95",
"x  c #FDEB92",
"c  c #F6EC9A",
"v  c #FCF193",
"b  c #FBF19B",
"n  c #F5EEA3",
"m  c #F8EDA2",
"M  c #F5EEAB",
"N  c #FAF2A4",
"B  c #F6F0AB",
"V  c #FCF7AF",
"C  c #F5EFB5",
"Z  c #F6F1B4",
"A  c #FAF7B4",
"S  c #F6F1BC",
"D  c #F9F6BE",
"F  c #FCF8BB",
"G  c #F7F4C6",
"H  c #F6F2C5",
"J  c #F8F4C5",
"K  c #F8F4C7",
"L  c #FAF6C5",
"P  c #FDF9C0",
"I  c #F7F3C8",
"U  c #F7F2CD",
"Y  c #F7F3CF",
"T  c #F7F3CB",
"R  c #F8F4C9",
"E  c #F8F4CC",
"W  c #F8F4CD",
"Q  c #FDFAC9",
"!  c #FDFBC9",
"~  c #FDFACA",
"^  c #FDFBCA",
"/  c #FDFBCB",
"(  c #FAF8CC",
")  c #FAF8CE",
"_  c #FBF9CE",
"`  c #F8F3D1",
"'  c #F8F4D3",
"]  c #F8F4D4",
"[  c #FBF9D3",
"{  c #FEFDD6",
"}  c #FEFED6",
"|  c #FEFCD2",
" . c #F9F5DD",
".. c #F9F6DE",
"X. c #F9F5DB",
"o. c #FBF9D8",
"O. c #FFFDDD",
"+. c #FEFDDF",
"@. c #FEFDDA",
"#. c #FAF7E2",
"$. c #FAF7E3",
"%. c #FAF7E4",
"&. c #FAF7E2",
"*. c #FEFEE1",
"=. c #FBF8E7",
"-. c #FFFDE4",
";. c #FFFEE5",
":. c #FDFCE7",
">. c #FEFEE6",
",. c #FDFCE4",
"<. c #FBF8E8",
"1. c #FDFCE8",
"2. c #FFFEEA",
"3. c #FBF9EC",
"4. c #FCF9ED",
"5. c #FCFAED",
"6. c #FCFAEE",
"7. c #FCFAEF",
"8. c #FDFCEC",
"9. c #FCFBF0",
"0. c #FCFBF2",
"q. c #FDFBF2",
"w. c #FDFBF3",
"e. c #FDFCF1",
"r. c #FDFCF4",
"t. c #FDFCF5",
"y. c #FFFFF4",
"u. c #FFFFF5",
"i. c #FDFCF6",
"p. c #FDFCF7",
"a. c #FDFDF7",
"s. c #FFFFF6",
"d. c #FFFFF7",
"f. c #FDFCF4",
"g. c #FEFDF8",
"h. c #FEFEFA",
"j. c #FFFFFB",
"k. c white",
"l. c #FFFEFC",
/* pixels */
"                                                                                                                                ",
"                                                                                                                                ",
"                                                                                                                                ",
"                                                                                                                                ",
"                                                                                                                                ",
"                                                                                                                                ",
"                                                                                                                                ",
"                                                            , r r =                                                             ",
"                                                          1 F :. .j $                                                           ",
"                                                          v h.D W %.r                                                           ",
"                                                        ; / =.w e 9.n $                                                         ",
"                                                        h h.n % > S %.w                                                         ",
"                                                      - / <.w X X t w.n -                                                       ",
"                                                      h s.M -     < C %.w                                                       ",
"                                                    ; Q <.w         e s.n @                                                     ",
"                                                    h s.M -         < S #.w                                                     ",
"                                                  ; Q %.w           . e 9.n #                                                   ",
"                                                  d s.M -             < S #.w                                                   ",
"                                                - Q 3.w               . u w.n #                                                 ",
"                                                h s.Z -                 < S #.9                                                 ",
"                                              - Q 3.q                   . u g.c X                                               ",
"                                            o x s.C -                     < G  .9 o                                             ",
"                                X X $ 9 9 r l -.9.w                       . s t.B q w 9 9 # X .                                 ",
"                  . X O 7 9 r a m A ) o.:.s.k.5.M =                         < Z 0.k.f.=.E K B z q w 9 7 X X .                   ",
"              0 a N V E [ :.s.k.f.%.W K n c q r 2                             4 w q c M G Y #.w.k.s.#.E J M j e 3               ",
"            f +.k.f.#.` E B z q w 8 9 @ X .                                         . X & 9 w w q c B K ` #.h.w.C 4             ",
"            p k.g 8 9 9 # X X                                                                     X X ; 7 9 9 F h.q             ",
"            e w.n 5 o X                                                                                 X o r O.9.w             ",
"            2 n f.c 6 .                                                                                 . r { g.c =             ",
"              2 n t.c 2                                                                                 k { g.c <               ",
"                2 n t.M 2                                                                             k { t.z ;                 ",
"                  2 c t.C 2                                                                         k { s.z *                   ",
"                    2 c t.C 7                                                                     x -.s.z *                     ",
"                      2 z s.Z 3                                                                 x :.5.j -                       ",
"                        - c g.C 8                                                             k :.5.g -                         ",
"                          - z s.Z w                                                       . x 2.5.g -                           ",
"                            - j s.C w                                                     x 2.3.s =                             ",
"                              - j 9.H w                                                 k 2.3.g &                               ",
"                                * g s.n                                               & K 5.s %                                 ",
"                                X w 2.n .                                             X D  .6 X                                 ",
"                                . y k.s .                                             X m <.r                                   ",
"                                . b h.8                                                 e k.q                                   ",
"                                X A %.9                                                 w 9.c X                                 ",
"                                - ) Y 7                                                 7 #.Z X                                 ",
"                                9 ,.S +                                                 < T T 2                                 ",
"                                w 2.n X                                                 X Z #.7                                 ",
"                                i k.e .                                                 X c 9.w                                 ",
"                              . N f.w                     X i N z w X                     e k.e                                 ",
"                              X D #.9                 X i D 2.f.g.X.j 9 X                 r <.n X                               ",
"                              < ) G 2             X r V 2.w.H t p G h.` g 7 X             7  .S X                               ",
"                              9 %.D X         X w N :.h.G s < X X 3 g Y k.I s 2 .         ; G T 9                               ",
"                              w s.c o     X 9 N :.h.W s 6 X         X 3 g ` g.G s < X     X C &.9                               ",
"                              a k.q o X 7 b @.h.` g 7 X                 X 9 j X.s.H p ; X o v s.9                               ",
"                              m 5.8 > v { h.] j 9 X                         X w c #.w.S w : l k.e                               ",
"                              z s.V | s.&.c w X                                 X w n %.9.K | k.e                               ",
"                              r Y k. .n w X                                         & w M %.h.H 9                               ",
"                                w 8 w &                                                 = w 8 4                                 ",
"                                                                                                                                ",
"                                                                                                                                ",
"                                                                                                                                ",
"                                                                                                                                ",
"                                                                                                                                ",
"                                                                                                                                ",
"                                                                                                                                "
};
