/* XPM */
static char *_daec0cf963d4ec4dd868d42e26464c8s4w4lha2mWxP8Kys[] = {
/* columns rows colors chars-per-pixel */
"64 64 116 2 ",
"   c None",
".  c #3B0018",
"X  c #46001D",
"o  c #49001F",
"O  c #4E0020",
"+  c #540024",
"@  c #61002E",
"#  c #730035",
"$  c #790035",
"%  c #7E0245",
"&  c #83003D",
"*  c #8B003F",
"=  c #8E0042",
"-  c #8C014C",
";  c #920042",
":  c #9B004B",
">  c #8E0151",
",  c #930053",
"<  c #990056",
"1  c #9B0058",
"2  c #A30047",
"3  c #A6004B",
"4  c #A8004C",
"5  c #A10052",
"6  c #AB0052",
"7  c #A5015A",
"8  c #AD015C",
"9  c #B30054",
"0  c #BC0056",
"q  c #B1005E",
"w  c #B9005E",
"e  c #BB0061",
"r  c #B3056D",
"t  c #B9006B",
"y  c #B50B6D",
"u  c #C40058",
"i  c #C8005A",
"p  c #C50063",
"a  c #CA0067",
"s  c #C6006C",
"d  c #CA0069",
"f  c #D50061",
"g  c #D6006E",
"h  c #DA006E",
"j  c #D11C6E",
"k  c #C50477",
"l  c #C90070",
"z  c #C9047C",
"x  c #D40071",
"c  c #DB0073",
"v  c #C01079",
"b  c #E2006C",
"n  c #EC006D",
"m  c #E20075",
"M  c #EC0072",
"N  c #E30079",
"B  c #EB007C",
"V  c #F50072",
"C  c #F2007A",
"Z  c #FA007E",
"A  c #D22571",
"S  c #C6317D",
"D  c #D60184",
"F  c #DA0187",
"G  c #DC0289",
"H  c #E4008F",
"J  c #EC008C",
"K  c #F60085",
"L  c #F40088",
"P  c #FF008E",
"I  c #FF0391",
"U  c #FC009B",
"Y  c #CD3A88",
"T  c #D43386",
"R  c #D43B8E",
"E  c #EE3696",
"W  c #F13597",
"Q  c #F73A90",
"!  c #F33698",
"~  c #F8369D",
"^  c #FD3E9D",
"/  c #FF35A5",
"(  c #FF3EA1",
")  c #FF35A8",
"_  c #FF3AA8",
"`  c #E34394",
"'  c #ED439E",
"]  c #F44499",
"[  c #FA409D",
"{  c #F9499A",
"}  c #EF44A1",
"|  c #FD40A1",
" . c #FF49A4",
".. c #FC44AA",
"X. c #F455A2",
"o. c #FF58B7",
"O. c #FE6BAC",
"+. c #FA7FB4",
"@. c #FF6FC7",
"#. c #FE88BA",
"$. c #FD91BD",
"%. c #FF95C5",
"&. c #FFB3CE",
"*. c #FFB5D4",
"=. c #FFB8D1",
"-. c #FFC3D6",
";. c #FFCDDB",
":. c #FFCEE0",
">. c #FFD7E4",
",. c #FFDAE4",
"<. c #FFDFE8",
"1. c #FFC9F3",
"2. c #FFE6ED",
"3. c #FFEBF1",
"4. c #FFE0F8",
"5. c #FFFFFF",
/* pixels */
"                                                                                                                                ",
"                                                                                                                                ",
"                                                                                                                                ",
"                                                                                                                                ",
"                                                                                                                                ",
"                    V V V V V V V V V V V V V V V V V V V V V V V V V V V V V V V V V V V V V V V V V V V                       ",
"              n Z I P P I I I I P I P I I I P I I P I I I P I I I I P P I P I I P I I P I I I I I P I I I P Z n                 ",
"            n { %.=.&.&.&.&.&.&.&.&.&.&.&.&.&.&.=.&.&.&.=.&.&.&.&.=.&.&.=.&.&.=.&.&.&.&.&.&.&.&.=.&.&.&.=.&.$.Q b               ",
"            B O.5.5.5.5.5.5.5.5.5.5.5.5.5.5.5.5.5.5.5.5.5.5.5.5.5.5.5.5.5.5.5.5.5.5.5.5.5.5.5.5.5.5.5.5.5.5.5.O.b               ",
"            B #.5.3.&.&.&.&.&.&.&.*.&.&.&.&.*.*.&.&.&.*.&.&.&.*.&.&.&.&.&.*.&.&.&.&.&.&.&.&.&.&.&.*.&.&.&.2.5.#.m               ",
"            B #.5.;./ U H D D F F F F F F F F F F F F F F F F F F F F F D F F F F F F F F F F F D F H U ) ;.5.#.c 0             ",
"          i N #.5.;.~ s < ; < 7 8 q q t e 8 e 8 q q q q q e q t e 8 e q t q q e q q 8 e q q q 7 : - 1 s ~ ;.5.#.x 4             ",
"          u N #.5.;.W 8 * ; 9 d c c c c c c c c c c c c c c c c c c c c c c c c c c c c c N x d q ; * w ! ;.5.#.x 4             ",
"          u N #.5.;.E w 9 A X. . . . . . . . . . . . ... . . . . . . . . . . . . ... . . . . . .] j 0 p ! ;.5.#.x 4             ",
"          u m #.5.;.W d h ] 2.5.5.5.5.5.5.5.5.5.5.5.5.5.5.5.5.5.5.5.5.5.5.5.5.5.5.5.5.5.5.5.5.5.2.] h h ! ;.5.#.x 3             ",
"          u N #.5.;.W g m ( 2.5.2.>.>.>.>.>.>.>.>.>.>.,.>.>.,.,.>.>.>.>.>.>.>.>.,.>.>.>.>.>.2.5.2.[ m m ~ ;.5.#.x 3             ",
"          u N #.5.;.W x m | 2.5. .....} ' ' ' ' ' ' ' ' ' ' ' ' ' ' ' } ' ' ' ' ' ' ' } .... .5.2.^ c c ~ ;.5.#.g 3             ",
"          u N #.5.;.! h N | 2.5.| J t < > , , > , , , , , > , , > , , , > , , , , , , 1 t J | 5.2.^ h c ~ ;.5.#.x 3             ",
"          u N #.5.;.! g c | 2.5.[ d & + X X X X X o X X X X X X X X X X X X X X X X X + = s [ 5.2.[ c c ~ ;.5.#.x 3             ",
"          u N #.5.;.! g m | 2.5.[ e $                                                   & s [ 5.2.^ c h ! ;.5.#.x 3             ",
"          u N #.5.;.! g c | 2.5.[ p ;                                                   4 g [ 5.2.[ g c ! ;.5.#.x 3             ",
"          u N #.5.;.! g c | 2.5.[ d 2                                                     h [ 5.2.] c c ~ ;.5.#.x 3             ",
"          u N #.5.;.! h m | 2.5.[ d 2                                                     c [ 5.2.( l c ~ ;.5.#.x 3             ",
"          u N #.5.;.! x c | 2.5.[ a 2                                                     c | 5.2.( x c ~ ;.5.#.x 4             ",
"          u N #.5.;.! g m | 2.5.[ a 2                                                     c | 5.2.[ c h ! ;.5.#.x 3             ",
"          u N #.5.;.! g c | 2.5.[ a 2                                                     h | 5.2.^ g c ~ ;.5.#.x 3             ",
"          u N #.5.;.! g m | 2.5.[ a 2                                                     h | 5.2.[ g c ~ ;.5.#.x 3             ",
"          u N #.5.;.! g c | 2.5.[ a 2                                                     c [ 5.2.} c h ~ ;.5.#.x 3             ",
"          u N #.5.;.! g m | 2.5.[ a 2                                                     c [ 5.2.^ x c ~ ;.5.#.x 3             ",
"          u N #.5.;.! g c | 2.5.[ a 2                                                     x | 5.2.^ x c ~ ;.5.#.x 4             ",
"          u N #.5.;.W g m | 2.5.[ a 2                                                     c | 5.2.[ x c ~ ;.5.#.x 3             ",
"          u N #.5.;.! g c | 2.5.[ a 2                                                     h | 5.2.^ h c ~ ;.5.#.x 3             ",
"          u N #.5.;.! g c | 2.5.[ a 2                                                     c | 5.2.[ x c ~ ;.5.#.g 3             ",
"          u N #.5.;.! g c | 2.5.[ d 2                                                     h | 5.2.[ c c ~ ;.5.#.g 3             ",
"          u N #.5.;.! h m | 2.5.[ a 2                                                     h | 5.2.[ g c ~ ;.5.#.x 3             ",
"          u N #.5.;.! x c | 2.5.[ d 2                                                     c [ 5.2.[ c h ! ;.5.#.x 3             ",
"          u N #.5.;.! g m | 2.5.[ d 2                                                     c | 5.2.[ x c ~ ;.5.#.x 3             ",
"          u N #.5.;.! g c | 2.5.[ a 2                                                     h | 5.2.] g c ~ ;.5.#.x 3             ",
"          u N #.5.;.! g m | 2.5.[ d 2                                                     c | 5.2.( x c ~ ;.5.#.x 3             ",
"          u N #.5.;.! g c | 2.5.[ d 2                                                     h [ 5.2.} c c ~ ;.5.#.x 4             ",
"          u N %.5.;.W g m | 2.5.[ a 2                                                     c [ 5.2.[ c c ! ;.5.#.x 4             ",
"          u N #.5.;.! g c | 2.5.[ a 3                                                     c | 5.2.[ h h ~ ;.5.#.x 4             ",
"          u N #.5.;.! g m | 2.5.[ a 3                                                     c ( 5.2.[ x c ~ ;.5.#.x 4             ",
"          u N #.5.;.! g c | 2.5.| c 0                                                   f N ( 5.2.] x c ~ ;.5.#.x 3             ",
"          u N #.5.;.W g c | 2.5.| K m n V V V V V V V V V V V V V V V V V V V V V V V V C P ( 5.2.} c c ~ ;.5.#.x 4             ",
"          u N #.5.;.! g c | 2.5.( U I P P P P P P P P P P P P P I P P P P P P P P P I I I U o.5.2.[ x h ~ ;.5.#.x 4             ",
"          u N #.5.;.W g c [ 2.5.=.*.&.*.&.&.&.&.&.&.*.&.&.&.&.&.&.&.*.&.&.&.&.&.&.&.&.&.*.*.1.5.2.] g g ~ ;.5.#.x 4             ",
"          u N #.5.;.W a a ' 2.5.5.5.5.5.5.5.5.5.5.5.5.5.5.5.5.5.5.5.5.5.5.5.5.5.5.5.5.5.5.5.5.5.2.` w g ~ ;.5.#.x 4             ",
"          u N #.5.;.W p 9 T $.=.&.&.&.=.&.&.=.&.&.=.&.&.=.*.&.=.&.=.*.=.&.=.&.&.&.=.&.&.&.&.&.&.$.S 4 a ~ ;.5.#.l 4             ",
"          u N #.5.;.! p 4 8 v z D F G G G G G G G G G G G G F G G G F G G G G G G G G G G H z k r < : f ~ ;.5.#.x 4             ",
"          u N #.5.;./ c p 9 8 8 8 8 q q q 8 e e q q e 8 e 8 q 8 e 8 e 8 e 8 8 q e 8 8 q q q 8 7 5 3 p N / ;.5.#.x 4             ",
"          u N #.5.;./ P K B c c c x c c c c x x c c x x x c c c c x x c c x c c c x c x c c x c c N K I _ ;.5.#.x 4             ",
"          u c #.5.,.| ^ ^ ^ ^ ^ ^ ^ ^ ^ ^ ^ ^ ^ | | ^ ^ ^ ^ ^ ^ ( ^ ^ ^ ^ ^ ^ ^ [ ^ ^ ^ ^ ^ ^ ^ ^ ^ ^ ( @.4.5.#.d 2             ",
"            a +.5.5.5.5.5.5.5.5.5.5.5.5.5.5.5.5.5.5.5.5.5.5.5.5.5.5.5.5.5.5.5.5.5.5.5.5.5.5.5.5.5.5.5.5.5.5.5.#.e ;             ",
"            q ' -.2.2.2.2.2.2.2.2.2.2.2.2.2.2.2.2.2.2.2.2.2.2.2.2.2.2.2.2.2.2.2.2.2.2.2.2.2.2.2.2.2.2.2.2.2.-.` :               ",
"            * y R ` ' E ' ' ' ' ' ' ' ' } ! } } ' ' ' ' ' ' ! ' ' ' ' ' ' } ! ' ' ' ' ' ' ' ' } ' ' ' ' E ` Y 1 #               ",
"              # - > > , < , , < < < < , , < < < < , < < < < < < < < < < < < < < < < < < , < < < < < < < > - - @ o               ",
"                . X O O O O O O O O O O O O O O O O O O O X O o o o o o O O O O o o O O O O O O O o X o X . .                   ",
"                                                                                                                                ",
"                                                                                                                                ",
"                                                                                                                                ",
"                                                                                                                                ",
"                                                                                                                                ",
"                                                                                                                                "
};
